<?xml version="1.0" encoding="UTF-8" standalone="no"?><!DOCTYPE svg PUBLIC "-//W3C//DTD SVG 1.1//EN" "http://www.w3.org/Graphics/SVG/1.1/DTD/svg11.dtd"><svg width="100%" height="100%" viewBox="0 0 120 120" version="1.1" xmlns="http://www.w3.org/2000/svg" xmlns:xlink="http://www.w3.org/1999/xlink" xml:space="preserve" xmlns:serif="http://www.serif.com/" style="fill-rule:evenodd;clip-rule:evenodd;stroke-linecap:round;stroke-miterlimit:3;"><g id="Version-1---2" serif:id="Version 1 / 2"><path d="M77.949,34.252c6.613,4.331 11.637,1.186 13.316,0.766l-3.328,11.558c13.24,-2.883 20.338,12.302 20.338,12.302c-3.754,-0.797 -8.317,-0.968 -10.953,1.478c4.369,3.227 6.514,6.993 5.977,11.407c-4.122,-1.817 -11.229,-1.918 -11.229,-1.918c7.054,14.904 -0.158,21.683 -0.158,21.683c-0.11,-3.965 -1.66,-6.604 -4.847,-7.735c0,0 4.067,17.418 -16.047,25.498c7.695,-14.915 1.318,-24.871 1.318,-24.871c0,0 -0.816,7.14 -9.368,8.247c0,0 7.134,-10.226 -0.396,-17.407c-1.695,0.441 -7.939,-0.059 -10.051,7.123c-3.095,-3.046 -6.459,-1.777 -6.459,-1.777c0,0 0.49,4.876 -3.302,9.079c-2.539,-4.428 -7.53,-8.331 -12.662,-7.369l2.018,-4.593l-1.217,-2.45l3.171,0.489l20.059,-8.095l-7.659,-3.298l-19.954,3.059l0.579,3.724l-5.144,-3.464l-3.661,0.053l-6.565,-7.535l28.221,-13.526l3.142,-7.452l11.308,-5.882l12.781,-4.349l22.414,-15.362c1.564,8.306 -7.053,19.193 -11.642,20.617Zm-31.645,11.483l9.952,-7.663l-0.38,5.489l-9.572,2.174Zm13.696,-14.863c3.297,-13.085 16.029,-12.874 22.935,-20.062c1.532,3.698 -0.277,6.487 -2.103,7.874l-13.979,9.848l-6.853,2.34Z" style="fill:#b2bbcd;stroke:#b2bbcd;stroke-width:0.24px;"/></g></svg>
