<?xml version="1.0" encoding="UTF-8" standalone="no"?><!DOCTYPE svg PUBLIC "-//W3C//DTD SVG 1.1//EN" "http://www.w3.org/Graphics/SVG/1.1/DTD/svg11.dtd"><svg width="100%" height="100%" viewBox="0 0 465 49" version="1.1" xmlns="http://www.w3.org/2000/svg" xmlns:xlink="http://www.w3.org/1999/xlink" xml:space="preserve" xmlns:serif="http://www.serif.com/" style="fill-rule:evenodd;clip-rule:evenodd;stroke-linejoin:round;stroke-miterlimit:2;"><path d="M379.053,7.2c-0.93,1.206 -2.924,-0.564 -4.32,-0.48c0.589,-1.942 3.771,-0.543 4.32,0.48Z" style="fill:#b2bbcd;"/><path d="M382.413,8.16c2.234,-0.154 2.672,1.489 4.32,1.92c-1.261,1.073 -4.396,-0.063 -4.32,-1.92Z" style="fill:#b2bbcd;"/><path d="M388.653,9.12c1.429,-0.927 4.786,0.317 4.8,2.4c-2.53,0.13 -2.674,-2.126 -4.8,-2.4Z" style="fill:#b2bbcd;"/><path d="M370.413,11.04c-1.092,-0.348 -2.451,-0.428 -3.359,-0.96c0.01,-1.411 3.602,-0.766 3.359,0.96Z" style="fill:#b2bbcd;"/><path d="M382.413,10.56c-0.47,1.049 -2.77,-0.065 -3.359,-0.48c-1.396,0.417 -0.54,0.719 -0.48,1.92c-2.056,0.296 -1.957,-1.563 -3.84,-1.44c1.33,-1.994 6.372,-1.852 7.679,0Z" style="fill:#b2bbcd;"/><path d="M360.33,11.04c-1.882,2.238 -1.124,4.248 -4.801,4.8c0.912,-2.289 2.035,-4.366 4.801,-4.8Z" style="fill:#b2bbcd;"/><path d="M372.333,12c2.118,-0.198 3.709,0.13 4.8,0.96c-1,0.968 -4.636,0.5 -4.8,-0.96Z" style="fill:#b2bbcd;"/><path d="M391.053,14.4c-1.529,2.48 -6.073,2.247 -7.68,0c1.927,-2.157 3.287,2.142 4.8,0.48c-0.469,-0.491 -0.949,-0.971 -1.44,-1.44c1.048,-2.336 3.131,0.48 4.32,0.96Z" style="fill:#b2bbcd;"/><path d="M354.573,12.96c-0.518,1.402 -2.285,1.555 -4.319,1.44c0.202,-1.717 2.489,-1.351 4.319,-1.44Z" style="fill:#b2bbcd;"/><path d="M435.693,18.24c-4.456,0.495 -10.655,2.787 -10.56,-0.96c0.13,-5.144 9.562,-4.883 10.56,0.96Zm-4.319,-1.44c0.392,-1.832 -1.022,-1.858 -1.921,-2.4c-0.364,1.804 1.256,1.624 1.921,2.4Z" style="fill:#b2bbcd;"/><path d="M375.693,15.84c-2.579,0.34 -3.933,-0.547 -5.76,-0.96c0.817,-1.836 5.48,-0.769 5.76,0.96Z" style="fill:#b2bbcd;"/><path d="M379.533,13.92c-0.169,0.63 -0.845,0.755 -0.96,1.44c2.909,-0.189 5.317,0.124 5.761,2.4c-3.353,-0.167 -5.328,-1.713 -7.681,-2.88c0.054,-1.226 1.607,-0.953 2.88,-0.96Z" style="fill:#b2bbcd;"/><path d="M359.374,15.84c0.146,1.266 -1.003,1.238 -1.921,1.44c0.149,0.652 1.202,0.398 1.921,0.48c-0.921,1.804 -1.841,1.109 -3.36,0.48c0.428,-1.491 1.763,-2.076 3.36,-2.4Z" style="fill:#b2bbcd;"/><path d="M370.893,16.32c1.893,-0.132 1.468,2.052 3.36,1.92l0,2.4c-2.09,-0.686 -2.207,1.64 -3.36,0.48c2.333,-1.308 0.272,-2.379 0,-4.8Z" style="fill:#b2bbcd;"/><path d="M377.613,18.24c1.594,0.486 4.107,0.053 4.32,1.92c-2.121,0.041 -4.253,0.093 -4.32,-1.92Z" style="fill:#b2bbcd;"/><path d="M362.253,20.16c0.08,1.041 -1.703,0.217 -2.4,0.48c0.078,-0.558 -0.105,-0.854 -0.479,-0.96c0.572,-1.996 1.642,0.37 2.879,0.48Z" style="fill:#b2bbcd;"/><path d="M393.453,19.2c-0.367,1.161 -4.021,2.484 -3.84,0c1.098,-0.305 2.895,-0.952 3.84,0Z" style="fill:#b2bbcd;"/><path d="M424.653,19.68c1.24,0.429 3.986,2.582 4.8,0.48c1.468,1.19 -0.501,2.986 -1.439,3.36c-1.517,-0.244 -2.107,-1.413 -3.84,-1.44c-0.154,-1.113 0.076,-1.843 0.479,-2.4Z" style="fill:#b2bbcd;"/><path d="M390.093,21.12c0.084,0.783 -3.141,0.969 -2.4,-0.48c0.999,-1.041 1.552,0.059 2.4,0.48Z" style="fill:#b2bbcd;"/><path d="M354.573,20.64c0.062,0.861 -0.587,1.012 -0.479,1.92c0.013,0.467 0.587,0.373 0.96,0.48c-0.544,1.216 -2.128,1.393 -3.84,1.44c-0.94,-1.254 1.999,-2.798 -1.44,-1.92c0.869,-1.37 2.932,-1.547 4.799,-1.92Z" style="fill:#b2bbcd;"/><path d="M381.453,21.12c-0.92,1.639 -4.397,0.722 -6.72,0.96c1.084,-2.311 5.266,-1.158 6.72,-0.96Z" style="fill:#b2bbcd;"/><path d="M364.173,22.56c0.799,-1.076 2.606,0.881 3.84,0.96c-0.874,2.228 -2.638,-0.592 -3.84,-0.96Z" style="fill:#b2bbcd;"/><path d="M388.653,22.56c0.528,1.528 -4.368,1.528 -3.84,0c0.499,-0.506 3.428,-0.991 3.84,0Z" style="fill:#b2bbcd;"/><path d="M379.533,24.96c-2.771,-0.664 -4.73,0.412 -6.239,-0.96c1.529,-0.447 5.051,-1.854 6.239,0.96Z" style="fill:#b2bbcd;"/><path d="M399.213,23.04c-0.087,1.41 -4.971,2.41 -5.28,0.48c1.03,-0.89 3.516,-0.324 5.28,-0.48Z" style="fill:#b2bbcd;"/><path d="M387.693,24.48c-1.225,1.988 -0.88,1.625 -0.96,3.36c-1.255,-0.825 -1.904,-2.256 -2.88,-3.36c0.944,-0.952 2.742,-0.306 3.84,0Z" style="fill:#b2bbcd;"/><path d="M363.693,24.48c2.034,-0.114 3.399,0.441 4.8,0.96c-0.92,0.889 -5.041,0.905 -4.8,-0.96Z" style="fill:#b2bbcd;"/><path d="M372.813,24.48c0.385,1.825 -2.27,0.61 -3.36,0.96c0.067,-1.373 2.003,-0.878 3.36,-0.96Z" style="fill:#b2bbcd;"/><path d="M399.693,25.44c-1.168,0.912 -3.832,0.328 -5.28,0.96c0.597,-1.386 4.416,-1.355 5.28,-0.96Z" style="fill:#b2bbcd;"/><path d="M379.533,25.92c-0.899,0.914 -0.052,1.205 0,2.399c-1.649,0.21 -2.69,-0.189 -3.84,-0.479c0.578,-1.342 1.451,-2.389 3.84,-1.92Z" style="fill:#b2bbcd;"/><path d="M436.173,25.92c0.174,1.106 -1.16,2.288 -1.92,2.88c-2.742,2.134 -5.735,2.311 -11.521,2.399c-0.043,-1.793 -0.538,-1.368 0,-2.88c3.973,1.013 5.248,0.596 8.16,0.48c2.007,-0.713 2.13,-3.31 5.281,-2.879Z" style="fill:#b2bbcd;"/><path d="M364.17,27.36c2.189,-1.53 4.04,1.385 5.76,1.92c-1.718,2.153 -4.674,-0.504 -5.76,-1.92Z" style="fill:#b2bbcd;"/><path d="M403.533,32.64c2.797,-1.419 1.491,2.389 3.841,2.88c-0.119,0.604 -0.955,0.484 -0.961,0c-0.467,0.013 -0.372,0.588 -0.479,0.96c-0.442,0.003 -2.82,-1.724 -2.88,-1.92c-0.098,-0.319 2.821,-1.841 0.479,-1.92Z" style="fill:#b2bbcd;"/><path d="M450.093,0.96c0.013,-0.467 0.587,-0.373 0.96,-0.48c-1.533,3.107 -4.186,5.094 -4.32,9.6c4.147,-4.5 7.513,-9.133 15.84,-10.08c-6.287,2.833 -11.654,6.586 -14.88,12.48c2.409,4.431 -0.865,8.63 -3.359,11.04c3.872,6.848 10.562,10.877 20.159,12c-3.889,2.345 -9.094,-0.438 -12.479,-2.4c-3.539,-2.051 -7.536,-4.409 -8.16,-9.12c-4.832,2.772 2.725,7.142 3.84,10.08c-3.272,0.228 -4.809,-5.427 -7.2,-7.68c-1.471,1.94 0.839,3.419 0.96,5.28c-0.101,1.844 -2.981,-0.936 -2.399,-2.88c-1.833,1.047 -3.879,1.881 -5.28,3.359c3.529,2.736 12.529,2.367 18.72,3.841c0.081,1.04 -1.702,0.217 -2.399,0.479c1.096,0.664 2.542,0.979 3.84,1.44c-0.247,1.673 -3.136,0.703 -4.8,0.96c-0.534,2.931 -3.374,0.707 -5.28,2.399c-0.655,-2.544 -4.721,-1.679 -5.76,-3.84c-5.906,-1.062 -9.988,-0.697 -15.36,0.48c3.804,4.601 11.562,3.062 17.76,3.359c-0.887,1.774 -2.572,-0.233 -3.359,1.44c1.822,0.095 3.312,1.366 4.8,1.92c0.987,0.367 2.828,-0.805 2.4,0.96c-1.214,0.862 -3.813,-0.096 -5.28,-0.48c-1.041,-0.08 -0.218,1.703 -0.48,2.4c-2.812,-0.913 -5.537,-0.059 -8.64,-0.96c-3.092,-0.898 -5.058,-3.191 -10.08,-3.36c-4.057,-0.136 -7.96,1.067 -12.96,0.48c-0.72,-1.041 -2.402,-1.118 -2.4,-2.88c-12.923,-1.215 -32.2,-2.658 -44.64,-1.44c-6.836,0.67 -11.615,3.087 -13.92,9.12c-1.373,0.035 -2.88,-0.464 -5.76,0c-0.442,-2.042 3.168,-0.031 2.88,-1.92c-1.034,-0.969 -5.004,1.271 -4.8,-1.92c1.183,-0.063 2.312,-0.073 2.88,0.479c0.419,-2.78 3.729,-2.671 4.319,-5.279c-3.295,-1.345 -7.234,-2.046 -9.119,-4.801c-5.557,2.125 -8.292,7.069 -11.521,11.521c-2.907,0.173 -9.476,2.037 -9.6,-1.92c1.77,-0.045 3.073,1.966 4.8,0.479c-0.707,-1.853 -3.916,-1.203 -3.36,-4.319c1.386,-1.393 1.135,1.301 2.4,1.439c1.802,-1.799 4.69,-1.356 6.72,-1.92c0.979,-0.673 -0.472,-1.653 0.48,-2.88c4.29,-2.109 5.262,-7.538 7.68,-11.52c2.338,1.021 4.506,2.214 5.76,4.319c1.389,-1.246 1.8,-4.68 1.44,-6.24c1.53,-2.79 3.327,-5.313 4.8,-8.16c-4.264,-0.484 -6.826,1.406 -11.521,0c-5.175,-1.55 -6.786,-6.322 -11.039,-7.2c-6.464,-1.334 -16.834,0.958 -20.641,2.4c-12.441,4.713 -13.338,19.327 -27.359,22.08c-1.174,0.23 -2.742,0.366 -4.32,0.48c-12.35,0.895 -20.551,-3.745 -29.28,-8.64c-1.055,-0.592 -2.379,-0.815 -3.36,-1.44c-7.279,-4.634 -21.226,-5.199 -31.2,-1.44c-5.031,1.896 -9.541,5.006 -13.44,8.16c-1.625,1.314 -2.736,3.013 -4.32,4.32c-8.254,6.814 -22.321,9.253 -37.92,7.2c-19.082,-2.512 -29.391,-11.097 -46.56,-20.16l-2.4,0c-3.138,-3.103 -8.705,-3.776 -12,-6.72l-2.88,0c-16.505,-7.097 -50.88,-15.09 -70.08,-4.8c-4.831,2.589 -7.948,5.163 -11.04,9.12c-3.217,4.116 -6.148,10.366 -4.32,17.76c-5.816,-4.798 1.155,-18.167 3.84,-21.601c1.824,-2.333 5.118,-4.319 8.64,-6.24c13.977,-7.624 36.311,-7.432 55.2,-3.84c8.708,1.656 15.373,5.702 23.04,8.64c3.89,1.491 7.458,2.467 11.04,4.32c6.537,3.381 13.315,6.71 20.16,10.56c3.163,1.778 6.471,4.29 9.6,5.279c4.457,1.41 9.376,1.87 14.4,3.36c1.231,0.365 1.85,1.292 2.88,1.44c1.226,0.176 2.43,-0.462 3.84,-0.48c5.215,-0.069 10.031,1.413 14.88,0.48c2.776,-0.534 6.209,-1.945 8.64,-2.88c5.895,-2.268 10.019,-7.137 14.88,-10.08c1.305,0.438 -1.279,0.892 -0.48,2.399c2.682,-0.452 2.109,-2.71 1.92,-3.84c10.024,-5.655 18.844,-12.378 34.08,-10.56c5.064,0.604 13.3,3.363 16.8,5.76c2.217,1.517 5.138,4.92 8.641,6.24c1.712,0.645 3.683,0.837 5.76,0.96c0.187,1.413 2.262,0.938 2.88,1.92c7.545,0.825 15.359,-1.363 19.2,-6.24c1.646,-2.092 2.871,-6.022 4.8,-8.16c4.605,-5.105 10.568,-7.439 19.2,-9.6c5.354,-1.34 12.576,-3.11 18.72,-2.88c6.101,0.229 7.656,3.298 12.48,5.76c2.031,1.037 3.646,1.531 6.72,1.44c1.146,-0.034 1.065,-0.672 2.399,-0.96c2.942,-0.634 7.174,0.585 9.12,-2.4c4.746,-0.836 9.687,-2.452 12.48,-3.84c1.31,-0.35 0.966,0.954 1.92,0.96c1.978,-1.171 5.391,-2.32 7.2,-0.96c0.562,-0.078 0.404,-0.875 0.479,-1.44c8.422,1.357 23.069,1.694 28.8,9.6c1.975,-1.226 1.565,-4.835 3.841,-5.76c2.052,0.028 3.516,0.645 5.279,0.96c1.792,-1.088 1.683,-4.077 3.841,-4.8c6.081,0.319 8.964,3.836 10.56,8.64c2.655,1.567 9.021,1.775 12,1.44c1.073,-3.247 1.331,-7.309 3.36,-9.6c0.452,2.7 -1.911,6.723 -1.44,11.04c1.958,-0.236 0.657,-2.392 0.96,-3.36c0.822,-2.627 3.711,-6.312 5.277,-7.672Zm-31.2,0.96c-0.392,0.767 -1.82,2.929 -0.48,3.84c0.72,-0.722 0.859,-2.021 1.921,-2.4c0.907,0.213 2.893,-0.653 2.399,0.96c-1.697,-0.258 -2.473,0.407 -2.88,1.44c2.582,0.683 0.123,1.124 0,2.88c1.658,0.801 2.9,0.952 2.88,2.4c1.805,-0.682 3.956,0.055 5.76,-1.44c-2.27,-3.366 -4.08,-9.088 -9.6,-7.68Zm-73.92,11.52c1.422,0.335 2.276,-3.25 2.4,0c1.669,-0.034 3.656,-1.191 1.92,-1.92c2.501,-0.859 6.298,-0.421 7.68,-2.4c-4.625,2.706 -11.523,-2.166 -12,4.32Zm0,-2.4c-1.917,0.032 -5.264,-0.608 -8.64,-0.48c-2.204,-3.236 -6.257,-4.624 -9.12,-7.2c-9.907,-1.245 -19.64,2.588 -25.92,4.32c-8.018,2.21 -16.654,9.056 -16.32,16.8c1.362,-0.398 1.302,-2.218 2.88,-2.4c-1.495,-1.066 2.079,-1.083 0.96,-3.36c2.866,-0.435 2.922,-5.353 5.76,-4.32c-0.108,-3.736 2.792,-1.658 3.84,-3.84c-0.025,0.826 0.37,1.23 0.961,1.44c-0.197,-1.157 0.876,-1.043 0.479,-2.4c1.127,1.169 1.074,-0.536 1.92,-0.96c2.067,0.494 3.866,-0.714 6.24,-1.92c-0.021,0.661 0.226,1.054 0.479,1.44c2.08,0.028 3.966,-3.169 5.28,-0.96c0.066,-0.894 0.315,-1.604 0.96,-1.92c0.233,0.567 0.512,1.088 0.96,1.44c0.706,-1.811 1.583,-1.281 2.88,-0.48c0.95,-2.158 2.913,0.26 4.801,-0.96c0.15,0.649 0.683,0.917 0.479,1.92c1.541,0.42 0.995,-1.245 1.92,-1.44c0.418,1.396 0.719,0.54 1.92,0.48c0.263,0.697 -0.561,2.48 0.48,2.4c0.196,-0.604 0.619,-0.981 1.439,-0.96l0,2.4c1.686,0.085 1.579,-1.622 2.88,-1.92c-1.274,2.476 2.257,2.788 2.881,4.8c0.196,-0.603 0.618,-0.981 1.439,-0.96c-0.151,0.649 -0.684,0.917 -0.479,1.92c1.542,0.422 0.657,-1.582 1.92,-1.44c1.164,0.956 -0.811,2.05 0.96,2.4c0.828,-0.291 -0.037,-2.277 0.96,-2.4c0.989,0.13 0.114,2.125 1.439,1.92c-0.134,-1.094 0.116,-1.804 0.96,-1.92c0.109,0.851 -0.483,2.404 0.96,1.92c0.686,-0.916 1.118,-2.084 1.442,-3.36Zm17.28,-1.44c0.155,-0.553 2.094,-1.653 2.399,-0.48c-4.328,2.7 -13.963,0.878 -16.319,6.72c1.519,-0.104 3.804,-1.923 5.279,-0.48c-0.701,1.059 -3.802,-0.282 -3.84,1.44c1.291,-0.331 0.928,0.993 1.44,1.44c-2.502,0.399 -4.554,-0.304 -5.28,0.96c1.767,0.85 4.9,-1.716 6.72,0.48c-3.877,0.677 -6.902,0.408 -8.16,3.36c-0.387,0.909 1.035,2.229 -0.479,2.88c2.174,1.128 0.642,3.221 0.96,5.76c-0.916,0.204 -0.868,1.371 -2.4,0.96c-0.29,1.149 -0.689,2.189 -0.479,3.84c0.944,0.655 2.741,0.458 3.84,0.96c0.098,-2.114 1.821,-5.11 2.4,-8.16c-1.952,-0.126 0.353,-2.162 -1.44,-2.88c0.333,-0.376 2.678,-1.068 2.88,0c-1.087,1.068 0.508,1.728 0.48,2.88c-0.017,0.668 -0.842,0.573 -0.96,0.96c-0.164,0.533 0.23,1.987 0,2.88c-0.682,2.629 -1.059,0.739 0.479,2.4c-0.053,0.907 -1.587,0.333 -1.439,1.44c1.892,-0.133 1.468,2.052 3.359,1.92c3.421,-2.979 7.529,-5.271 9.12,-10.08c-1.094,0.134 -1.805,-0.116 -1.92,-0.96c1.017,-1.749 0.635,-2.214 0,-4.32c1.952,-2.852 0.865,-0.935 3.36,0c-1.864,0.597 0.312,2.451 -1.44,3.36c1.868,0.503 2.09,2.061 0.96,3.359c2.245,-0.125 0.67,0.57 1.44,1.92c-1.46,-0.019 -3.159,-0.279 -2.88,1.44c1.512,0.044 3.62,-1.783 4.8,-0.48c-1.022,0.898 -3.057,0.783 -3.84,1.92c1.824,0.896 5.547,-0.107 7.199,0.961c-1.396,0.523 -3.391,0.449 -4.319,1.439c2.8,0.08 4.602,-0.838 7.68,-0.479c0.421,-1.541 -1.245,-0.996 -1.44,-1.921c10.137,1.413 22.062,4.404 31.681,3.36c-1.115,-0.325 -1.285,-1.595 -2.4,-1.92c-3.454,2.604 -8.167,-2.455 -11.52,-1.44c0.571,-2.011 -2.023,-0.856 -2.4,-1.92c0.958,-0.482 0.758,-2.122 2.4,-1.92c0.103,1.396 3.114,1.148 1.92,2.4c3.605,-1.531 4.055,3.398 8.64,2.4c-0.177,-1.762 -3.032,-3.344 -1.92,-4.801c3.111,0.838 1.846,3.204 4.8,3.84c-1.043,1.395 2.012,1.897 1.92,3.841c1.406,0.245 2.706,-1.524 2.4,0.96c2.052,1.213 2.446,-1.199 3.36,-0.48c-0.069,0.567 -0.855,1.088 0,1.44c0.715,-0.565 1.354,-1.205 1.92,-1.92c-1.806,3.491 6.47,3.556 3.84,1.92c1.616,-0.305 4.458,0.618 5.28,-0.48c-1.878,-2.346 -6.38,-0.981 -8.16,-2.399c0.026,-1.573 1.364,-1.835 0.96,-3.841c-3.638,0.929 -4.598,-3.71 -7.2,-5.279l3.36,0c0.028,2.632 1.957,0.381 1.92,2.88c1.809,-0.369 2.294,0.585 3.84,0.479c1.323,-3.421 -1.207,-5.374 -2.4,-7.68c-2.034,-0.365 -5.685,0.885 -6.24,-0.96l5.28,0c-0.834,-2.144 -3.249,-1.044 -4.8,-0.48c-0.188,-0.685 -0.576,-0.81 0,-1.44c-5.987,1.286 -6.624,0.202 -9.12,-3.84c1.045,-1.043 2.832,-3.44 0.48,-3.84c2.107,-0.452 3.348,-1.772 5.279,-2.4c-2.293,0.298 -6.979,-1.375 -6.72,-3.36c2.006,-0.382 3.039,2.689 4.8,0.96c-2.323,-2.477 -6.521,-3.08 -9.12,-5.28c0.623,2.434 1.841,2.201 0,3.84c2.233,0.006 3.577,0.903 3.841,2.88c-3.173,-0.508 -4.347,-3.014 -6.721,-4.32c1.213,-1.095 -2.29,-1.53 0,-2.88c-0.994,0.286 -3.153,-0.593 -3.359,0.48c0.491,0.976 3.368,2.035 2.399,2.88c-2.854,-0.345 -4.719,-1.681 -7.2,-2.4c-1.605,1.004 1.852,1.804 0.48,2.4c-3.522,-0.427 -2.515,-2.534 -5.28,-3.36c-1.597,0.164 -1.701,1.818 -2.88,2.4c-1.979,0.1 -4.211,-0.051 -4.32,1.92c0.995,0.286 3.153,-0.593 3.36,0.48c-0.697,0.742 -2.457,0.422 -3.84,0.48c0.646,-2.074 -2.137,-0.685 -2.88,-2.4c1.81,-0.431 4.065,-0.415 5.76,-0.96c0.085,-2.827 -3.888,-1.972 -5.28,-0.48c0.565,0.075 1.363,-0.083 1.44,0.48c-1.945,0.869 -6.279,3.261 -5.76,4.321Zm-316.8,-5.28c-1.459,0.301 -4.135,-0.614 -4.8,0.48c1.459,-0.301 4.135,0.615 4.8,-0.48Zm372.48,5.28c3.626,1.623 0.692,8.851 1.44,10.08c-1.809,0.208 -2.187,-1.014 -2.881,-1.92c1.945,-1.504 -0.969,-2.93 -1.92,-4.32c-1.123,0.892 -1.055,2.974 -1.439,3.36c-0.703,-0.417 -1.521,-0.718 -1.44,-1.92c0.69,-0.75 1.21,-1.67 2.4,-1.92c0.092,-2.012 -2.356,-1.484 -1.92,-3.84c3.343,-0.99 3.396,4.727 6.239,5.76c0.377,-4.271 -3.452,-8.347 -8.159,-9.12c-2.093,3.456 -2.097,7.577 -0.48,11.52c1.093,1.787 4.689,1.071 4.32,4.32c3.954,-0.411 6.028,-0.265 9.12,-1.92c-3.718,1.699 -0.931,7.013 -2.4,11.04c-2.158,-2.312 -2.007,-5.598 -1.439,-8.64c-2.112,-0.174 -5.331,1.045 -3.841,2.88c1.852,0.613 1.206,8.063 0,12c2.275,1.34 4.423,1.697 5.761,-0.96c-1.799,-0.122 -3.087,-0.754 -3.841,-1.921c0.085,-1.515 0.338,-2.862 1.921,-2.88c0.913,1.599 0.682,1.561 0.96,3.36c7.534,-1.266 14.196,-3.402 18.239,-8.16c-0.289,-2.689 0.254,-4.546 0.96,-6.24c-2.38,-1.002 -2.526,-2.395 -1.439,-4.8c-0.918,-0.224 -2.066,1.48 -1.92,-0.48c2.723,0.714 6.427,-1.781 8.64,0.96c-2.426,0.506 -2.746,-1.094 -4.8,-0.96c0.396,1.357 -0.677,1.244 -0.48,2.4c1.833,2.098 5.261,1.507 6.721,-0.48c0.011,-1.13 -0.827,-1.413 -0.48,-2.88c-4.892,-2.661 -11.409,-1.371 -16.8,-2.88c-1.5,1.22 -3.4,2.04 -5.28,2.88c0.107,0.908 -0.541,1.059 -0.479,1.92c0.043,0.757 1.224,0.376 0.96,1.44c-2.105,0.249 -1.577,0.15 -3.36,0.48c0.47,-3.84 -0.536,-8.736 -2.883,-8.159Zm-16.32,10.08c1.625,2.106 2.785,1.019 4.32,0.48c-2.585,0.908 2.344,-1.449 1.92,-1.44c-0.697,-0.263 -2.48,0.561 -2.4,-0.48c1.508,0.237 1.269,-1.655 2.4,-0.48c-0.778,-2.422 -2.539,-3.861 -6.24,-3.36c-0.922,2.05 -0.604,2.356 -1.439,4.32c2.593,0.497 3.116,-3.582 5.279,-1.92c-2.099,0.141 -2.98,1.5 -3.84,2.88Zm-174.72,-2.88c-0.878,-2.652 -5.279,-0.489 -5.76,-0.48c-0.895,0.017 -2.668,-2.399 -2.88,0c4.774,0.51 11.095,2.021 14.88,1.92c-1.051,-1.578 -3.179,0.418 -2.88,-1.92c-1.665,-0.385 -1.845,0.715 -3.36,0.48Zm-15.36,1.92c2.747,-0.851 2.825,-1.39 6.24,-1.44c0.287,-2.039 -7.119,-1.652 -6.24,1.44Zm-3.36,1.44c0.2,-1.081 2.632,0.072 2.4,-1.44c-0.559,-2.21 -4.152,0.097 -2.4,1.44Zm32.16,0.96c0.359,-1.64 -1.95,-0.61 -1.44,-2.4c-1.156,-0.197 -1.043,0.876 -2.4,0.48c0.145,-0.78 -0.647,-1.295 -0.96,-0.48c1.354,1.046 2.308,2.492 4.8,2.4Zm-36.96,0.48c1.53,-0.23 2.926,-0.594 3.36,-1.92c-1.489,1.345 -3.103,-0.29 -3.36,1.92Zm42.72,3.36c0.122,-3.002 -2.643,-3.118 -4.32,-4.32c-0.208,3.089 2.763,2.997 4.32,4.32Zm-45.6,-1.44c0.195,-0.925 1.861,-0.379 1.44,-1.92c-1.483,-0.627 -2.723,1.362 -1.44,1.92Zm75.84,6.72c1.968,-0.309 2.531,-1.274 3.359,-1.439c1.398,-0.28 0.232,0.075 1.44,-0.96c0.939,-0.806 1.212,-0.199 2.399,-0.48l0,-1.92c-2.896,1.101 -5.719,2.278 -7.198,4.799Zm-26.88,-3.36c3.266,0.74 6.732,3.82 10.08,2.88c-3.231,-0.608 -7.527,-4.734 -10.08,-2.88Zm84,3.36c1.532,0.285 1.485,-0.9 2.4,0c0.469,-1.933 -2.868,-1.933 -2.4,0Zm-60.96,0.96l2.4,0c-0.021,-0.66 0.227,-1.054 0.48,-1.439c-0.8,0.639 -3.054,-0.176 -2.88,1.439Zm64.32,0.96c-0.979,-0.141 -0.941,-1.299 -1.92,-1.439c-0.703,1.057 -1.459,2.062 -1.44,3.84c1.912,-0.169 3.116,-1.044 4.801,-1.44c0.187,0.686 0.575,0.81 0,1.44c1.776,0.336 1.197,-1.683 1.92,-2.4c-1.343,-0.125 -2.708,-2.695 -3.84,-1.439c0.558,0.078 0.52,0.757 0.479,1.438Zm-149.76,2.4c0.486,-1.594 2.656,-1.504 2.4,-3.84c-1.76,0.021 -3.302,2.75 -2.4,3.84Zm-3.36,1.44c1.157,0.196 1.043,-0.877 2.4,-0.48c-0.082,-0.718 0.171,-1.771 -0.48,-1.92c-0.354,1.086 -1.829,1.051 -1.92,2.4Zm-2.88,1.92c0.435,-0.846 1.767,-0.794 1.92,-1.92c-1.643,-0.637 -3.35,1.069 -1.92,1.92Zm262.561,-0.48c-0.876,-0.13 -2.691,-1.728 -3.36,-0.479c1.275,-0.271 2.444,1.973 3.36,0.479Zm-266.401,1.44c1.255,0.135 2.064,-0.176 1.92,-1.44c-1.255,-0.135 -2.064,0.176 -1.92,1.44Zm-3.84,0.96c0.92,0.862 2.955,0.135 2.88,-1.44c-1.463,-0.024 -2.444,0.436 -2.88,1.44Zm258.241,4.8c-3.753,-0.781 -6.446,-5.902 -10.561,-3.36c4.843,-0.518 7.091,4.103 10.561,3.36Zm-86.881,-0.48c1.307,-0.773 2.832,-1.328 2.881,-3.359c-1.449,0.332 -3.226,2.826 -2.881,3.359Zm-23.04,0.96c1.795,0.034 2.749,-0.771 3.36,-1.92c-1.393,0.368 -2.761,0.759 -3.36,1.92Z" style="fill:#b2bbcd;"/><path d="M367.533,19.2c-0.571,-1.108 -3.252,1.225 -1.92,-1.44c-2.983,-0.012 -0.204,3.091 -2.88,2.88c0.403,-0.557 0.633,-1.287 0.48,-2.4c0.914,-0.206 1.205,-1.034 2.399,-0.96c-0.407,-1.408 -1.208,0.625 -2.399,0c1.216,-1.382 0.496,-0.833 0,-2.4c1.572,-0.027 1.835,-1.365 3.84,-0.96c-0.316,0.645 -1.026,0.894 -1.92,0.96c0.193,0.926 2.198,0.042 1.439,1.92c2.917,-0.655 1.332,1.896 3.84,2.4c0.201,1.64 -0.145,2.735 -1.92,2.4c0.737,-2.256 -1.759,-0.946 -2.399,-0.48c-1.05,-0.325 0.909,-1.595 1.44,-1.92Z" style="fill:#b2bbcd;"/></svg>
