<?xml version="1.0" standalone="no"?>
<!DOCTYPE svg PUBLIC "-//W3C//DTD SVG 1.1//EN" "http://www.w3.org/Graphics/SVG/1.1/DTD/svg11.dtd" >
<svg xmlns="http://www.w3.org/2000/svg">
<metadata>
<json>
<![CDATA[
{
	"fontFamily": "Octmoon",
	"majorVersion": 2,
	"minorVersion": 0,
	"fontURL": "https://www.pytes.net",
	"description": "A combination of IcoMoon Free, Octicons and our official pytesNET logo!\nFont generated by IcoMoon.",
	"copyright": "IcoMoon and GitHub Inc.",
	"designer": "IcoMoon and GitHub Inc.",
	"license": "MIT",
	"version": "Version 2.0",
	"fontId": "Octmoon",
	"psName": "Octmoon",
	"subFamily": "Regular",
	"fullName": "Octmoon"
}
]]>
</json>
</metadata>
<defs>
<font id="Octmoon" horiz-adv-x="1024">
<font-face units-per-em="1024" ascent="960" descent="-64" />
<missing-glyph horiz-adv-x="1024" />
<glyph unicode="&#x20;" horiz-adv-x="512" d="" />
<glyph unicode="&#xe900;" glyph-name="mark-pytesnet" data-tags="mark-pytesnet" d="M665.165 667.716c39.159 12.151 112.691 105.054 99.345 175.932l-191.266-131.089-109.065-37.111-96.495-50.193-26.812-63.59-240.819-115.422 56.021-64.299 31.241 0.452 43.895-29.559-4.941 31.778 170.274 26.103 65.357-28.143-171.17-69.077-27.059 4.173 10.385-20.907-17.22-39.194c43.793 8.209 86.383-25.097 108.049-62.882 32.358 35.866 28.177 77.474 28.177 77.474s28.706 10.829 55.117-15.164c18.022 61.286 71.305 57.020 85.769 60.783 64.256-61.278 3.379-148.54 3.379-148.54 72.977 9.446 79.94 70.374 79.94 70.374s54.417-84.958-11.247-212.233c171.639 68.949 136.934 217.583 136.934 217.583 27.196-9.651 40.422-32.171 41.361-66.005 0 0 61.542 57.847 1.348 185.028 0 0 60.646-0.862 95.821-16.367 4.582 37.666-13.722 69.803-51.004 97.34 22.494 20.873 61.431 19.413 93.466 12.612 0 0-60.57 129.579-173.551 104.977l28.399 98.628c-14.327-3.584-57.199-30.421-113.63 6.537zM395.127 569.728l84.924 65.391-3.243-46.839-81.681-18.551zM512 696.559l58.479 19.968 119.287 84.036c15.582 11.836 31.019 35.635 17.946 67.191-58.931-61.338-167.578-59.537-195.712-171.196z" />
<glyph unicode="&#xe901;" glyph-name="eye-closed" data-tags="eye-closed" d="M948.608 841.344l-826.953-827.017c-5.818-6.018-13.976-9.76-23.009-9.76-17.673 0-32 14.327-32 32 0 9.032 3.742 17.19 9.769 23.017l132.096 132.16c-134.144 112.32-208.512 260.992-208.512 260.992s192 384 515.84 384c96.32 0 181.12-35.648 252.48-85.12l135.040 135.040c5.793 5.785 13.791 9.362 22.624 9.362 17.683 0 32.018-14.335 32.018-32.018 0-8.849-3.59-16.86-9.394-22.656zM311.040 294.208l91.648 91.712c-11.734 18.963-18.688 41.958-18.688 66.578 0 0.106 0 0.213 0 0.319v-0.017c0 71.040 56.96 128 128 128 24.576 0 47.424-6.784 66.88-18.688l91.712 91.712c-42.996 34.263-98.112 54.977-158.066 54.977-0.185 0-0.37 0-0.555-0.001h0.029c-140.8 0-256-115.2-256-256 0-60.032 20.544-115.072 54.976-158.592zM759.36 519.104l127.552 127.488c51.774-56.47 97.292-120.070 134.597-188.778l2.491-5.014s-192-384-508.16-384c-61.707 0.232-120.223 13.642-172.961 37.558l2.657-1.078 100.16 100.224c21.12-5.696 43.392-8.704 66.304-8.704 142.080 0 256 113.92 256 256 0 22.912-3.008 45.12-8.704 66.304zM597.632 357.44l0.122 0.108c3.332 2.982 6.507 6.136 9.606 9.556l-9.728-9.664z" />
<glyph unicode="&#xe902;" glyph-name="home" data-tags="home" d="M1024 384l-192 192v256h-128v-128l-192 192-512-512h128l64-320c0-35.2 28.8-64 64-64h512c35.2 0 64 28.8 64 64l64 320h128zM768 64h-192v256h-128v-256h-192l-76.16 403.84 332.16 332.16 332.16-332.16-76.16-403.84z" />
<glyph unicode="&#xe903;" glyph-name="arrow-both" data-tags="arrow-both" horiz-adv-x="1280" d="M0 448l384 320v-192h512v192l384-320-384-320v192h-512v-192l-384 320z" />
<glyph unicode="&#xe904;" glyph-name="arrow-down" data-tags="arrow-down" horiz-adv-x="640" d="M448 512v256h-256v-256h-192l320-384 320 384h-192z" />
<glyph unicode="&#xe905;" glyph-name="arrow-left" data-tags="arrow-left" horiz-adv-x="640" d="M384 768l-384-320 384-320v192h256v256h-256v192z" />
<glyph unicode="&#xe906;" glyph-name="arrow-right" data-tags="arrow-right" horiz-adv-x="640" d="M640 448l-384 320v-192h-256v-256h256v-192l384 320z" />
<glyph unicode="&#xe907;" glyph-name="arrow-up" data-tags="arrow-up" horiz-adv-x="640" d="M320 768l-320-384h192v-256h256v256h192l-320 384z" />
<glyph unicode="&#xe908;" glyph-name="arrow-small-down" data-tags="arrow-small-down" horiz-adv-x="384" d="M256 512v128h-128v-128h-128l192-256 192 256h-128z" />
<glyph unicode="&#xe909;" glyph-name="arrow-small-left" data-tags="arrow-small-left" horiz-adv-x="384" d="M256 512v128l-256-192 256-192v128h128v128h-128z" />
<glyph unicode="&#xe90a;" glyph-name="arrow-small-right" data-tags="arrow-small-right" horiz-adv-x="384" d="M384 448l-256 192v-128h-128v-128h128v-128l256 192z" />
<glyph unicode="&#xe90b;" glyph-name="arrow-small-up" data-tags="arrow-small-up" horiz-adv-x="384" d="M192 640l-192-256h128v-128h128v128h128l-192 256z" />
<glyph unicode="&#xe90c;" glyph-name="triangle-down" data-tags="triangle-down" horiz-adv-x="768" d="M0 640l384-384 384 384h-768z" />
<glyph unicode="&#xe90d;" glyph-name="triangle-left" data-tags="triangle-left" horiz-adv-x="384" d="M384 832l-384-384 384-384v768z" />
<glyph unicode="&#xe90e;" glyph-name="triangle-right" data-tags="triangle-right" horiz-adv-x="384" d="M0 64l384 384-384 384v-768z" />
<glyph unicode="&#xe90f;" glyph-name="triangle-up" data-tags="triangle-up" horiz-adv-x="768" d="M768 256l-384 384-384-384h768z" />
<glyph unicode="&#xe910;" glyph-name="chevron-down" data-tags="chevron-down" horiz-adv-x="640" d="M320 256l-320 320 96 96 224-240 224 240 96-96-320-320z" />
<glyph unicode="&#xe911;" glyph-name="chevron-left" data-tags="chevron-left" horiz-adv-x="512" d="M352 768l96-96-240-224 240-224-96-96-320 320 320 320z" />
<glyph unicode="&#xe912;" glyph-name="chevron-right" data-tags="chevron-right" horiz-adv-x="512" d="M480 448l-320-320-96 96 240 224-240 224 96 96 320-320z" />
<glyph unicode="&#xe913;" glyph-name="chevron-up" data-tags="chevron-up" horiz-adv-x="640" d="M640 320l-96-96-224 240-224-240-96 96 320 320 320-320z" />
<glyph unicode="&#xe914;" glyph-name="alert" data-tags="alert" d="M569.152 864c-11.712 19.84-33.28 32-56.768 32s-44.992-12.16-56.704-32l-446.848-767.936c-5.527-9.155-8.796-20.212-8.796-32.032s3.27-22.877 8.954-32.314l-0.158 0.282c12.352-19.84 33.92-32.064 56.704-32.064h893.696c23.488 0 45.056 12.16 56.128 32 5.438 9.378 8.647 20.633 8.647 32.639 0 11.543-2.967 22.393-8.179 31.829l0.172-0.339-446.848 767.936zM577.664 128.192h-130.496v128.192h130.496v-128.192zM577.664 320.448h-130.496v256.384h130.496v-256.384z" />
<glyph unicode="&#xe915;" glyph-name="archive" data-tags="archive" horiz-adv-x="896" d="M832 832v-128h-768v128h768zM0 704c0-35.346 28.654-64 64-64v0-576c0-35.346 28.654-64 64-64v0h640c35.346 0 64 28.654 64 64v0 576c35.346 0 64 28.654 64 64v0 128c0 35.346-28.654 64-64 64v0h-768c-35.346 0-64-28.654-64-64v0-128zM128 640h640v-576h-640v576zM256 448v64h384v-64h-384z" />
<glyph unicode="&#xe916;" glyph-name="beaker" data-tags="beaker" d="M920.32 26.24l-216.32 485.76v256h64v64h-576v-64h64v-256l-215.68-485.76c-3.554-7.712-5.627-16.734-5.627-26.24 0-35.299 28.578-63.924 63.859-64h764.167c46.080 0 76.8 48 58.24 90.24h-0.64zM240 320l80 192v256h320v-256l80-192h-480zM512 448v-64h64v64h-64zM448 512v64h-64v-64h64zM448 704v-64h64v64h-64zM448 896v64h-64v-64h64z" />
<glyph unicode="&#xe917;" glyph-name="bell" data-tags="bell" horiz-adv-x="960" d="M896 192h0.64l-42.24 37.12c-49.28 48.64-51.84 162.56-76.16 282.88-49.28 241.28-266.24 320-266.24 320 0 35.2-28.8 64-64 64s-64-28.8-64-64c0 0-211.84-78.72-261.12-320-24.32-119.68-26.88-233.6-76.16-282.88l-46.72-37.12v-64h896v64zM448-64c-71.040 0-128 56.96-128 128h256c0-71.040-56.96-128-128-128z" />
<glyph unicode="&#xe918;" glyph-name="bold" data-tags="bold" horiz-adv-x="640" d="M64 832h245.12c158.72 0 275.2-48 275.2-188.8 0-72.96-40.32-142.72-106.88-167.040v-3.84c85.12-19.2 147.2-78.72 147.2-183.040 0-152.96-126.080-225.28-295.040-225.28h-265.6v768zM298.24 515.2c106.88 0 152.32 42.24 152.32 108.16 0 74.88-49.92 103.040-149.76 103.040h-100.48v-211.2h97.92zM315.52 170.24c113.28 0 176 40.96 176 126.72 0 81.28-60.8 115.84-176 115.84h-115.2v-243.2h115.2v0.64z" />
<glyph unicode="&#xe919;" glyph-name="book" data-tags="book" d="M192 640v-64h256v64h-256zM192 448v64h256v-64h-256zM192 320v64h256v-64h-256zM896 640v-64h-256v64h256zM896 512v-64h-256v64h256zM896 384v-64h-256v64h256zM1024 768v-576c0-35.2-28.8-64-64-64h-352l-64-64-64 64h-352c-35.2 0-64 28.8-64 64v576c0 35.2 28.8 64 64 64h352l64-64 64 64h352c35.2 0 64-28.8 64-64zM512 736l-32 32h-352v-576h384v544zM960 768h-352l-32-32v-544h384v576z" />
<glyph unicode="&#xe91a;" glyph-name="bookmark" data-tags="bookmark" horiz-adv-x="640" d="M576 960h-512c-46.72 0-64-17.28-64-64v-960l320 197.76 320-197.76v960c0 46.72-17.28 64-64 64zM526.080 688l-119.040-87.040 46.080-138.24c3.84-14.080-1.28-17.92-12.8-10.88l-120.32 85.76-120.32-85.76c-12.16-7.040-16-3.2-12.8 10.88l46.080 138.24-119.040 87.040c-10.88 10.24-8.96 14.72 5.76 14.72l147.2 1.92 44.8 138.24h16l44.8-138.24 147.2-1.92c14.72 0 17.28-5.12 5.76-14.72h0.64z" />
<glyph unicode="&#xe91b;" glyph-name="briefcase" data-tags="briefcase" horiz-adv-x="896" d="M576 704v64c0 35.2-28.8 64-64 64h-128c-35.2 0-64-28.8-64-64v-64h-256c-35.2 0-64-28.8-64-64v-512c0-35.2 28.8-64 64-64h768c35.2 0 64 28.8 64 64v512c0 35.2-28.8 64-64 64h-256zM384 768h128v-64h-128v64zM832 384h-320v-64h-128v64h-320v256h64v-192h640v192h64v-256z" />
<glyph unicode="&#xe91c;" glyph-name="broadcast" data-tags="broadcast" d="M576 384h-64c35.2 0 64 28.8 64 64v64c0 35.2-28.8 64-64 64h-64c-35.2 0-64-28.8-64-64v-64c0-35.2 28.8-64 64-64h-64c-35.2 0-64-28.8-64-64v-128h64v-192c0-35.2 28.8-64 64-64h64c35.2 0 64 28.8 64 64v192h64v128c0 35.2-28.8 64-64 64zM448 512h64v-64h-64v64zM576 256h-64v-256h-64v256h-64v64h192v-64zM709.76 480c0-17.92-1.92-34.56-5.76-51.84v-126.72c39.040 49.28 64 111.36 64 179.2 0 158.72-129.28 288-288 288s-288-129.28-288-288c0-68.48 24.96-129.92 64-179.2v126.72l0.312-1.561c-4.046 17.078-6.187 34.894-6.187 53.209 0 126.972 102.909 229.908 229.875 229.952 126.72 0 229.76-103.040 229.76-229.76zM960 480c0 264.96-215.040 480-480 480h0.021c-0.134 0-0.268 0-0.403 0-264.991 0-479.808-214.817-479.808-479.808 0-183.201 102.674-342.42 256.19-424.512v67.2c-119.040 74.24-197.76 206.080-197.76 357.12v0c0 232.932 188.828 421.76 421.76 421.76v0c232.932 0 421.76-188.828 421.76-421.76v0.059c0.001-0.377 0.001-0.754 0.001-1.132 0-149.523-78.247-280.77-197.761-356.047v-67.2c151.68 80 256 240 256 424.32z" />
<glyph unicode="&#xe91d;" glyph-name="browser" data-tags="browser" horiz-adv-x="896" d="M320 768h64v-64h-64v64zM192 768h64v-64h-64v64zM64 768h64v-64h-64v64zM832 128h-768v512h768v-512zM832 704h-384v64h384v-64zM896 768c0 35.2-28.8 64-64 64h-768c-35.2 0-64-28.8-64-64v-640c0-35.2 28.8-64 64-64h768c35.2 0 64 28.8 64 64v640z" />
<glyph unicode="&#xe91e;" glyph-name="bug" data-tags="bug" d="M704 320h192v64h-192v64l202.88 65.92-21.76 60.16-181.12-62.080v64c0 35.2-28.8 64-64 64v64c0 30.72-23.040 56.32-53.12 62.080l65.92 65.92h115.2v64h-140.8l-128-128h-37.76l-128.64 128h-140.8v-64h115.2l65.92-65.92c-30.080-5.76-53.12-30.72-53.12-62.080v-64c-35.2 0-64-28.8-64-64v-64l-181.12 62.080-21.76-60.16 202.88-65.92v-64h-192v-64h192v-64l-202.88-65.92 21.76-60.16 181.12 62.080v-64c0-35.2 28.8-64 64-64h64l64 64v448h64v-448l64-64h64c35.2 0 64 28.8 64 64v64l181.12-62.080 21.76 60.16-202.88 65.92v64zM576 640h-192v64h192v-64z" />
<glyph unicode="&#xe91f;" glyph-name="calendar" data-tags="calendar" horiz-adv-x="896" d="M832 832h-64v-96c0-17.92-14.080-32-32-32h-128c-17.92 0-32 14.080-32 32v96h-192v-96c0-17.92-14.080-32-32-32h-128c-17.92 0-32 14.080-32 32v96h-64c-35.2 0-64-28.8-64-64v-704c0-35.2 28.8-64 64-64h704c35.2 0 64 28.8 64 64v704c0 35.2-28.8 64-64 64zM832 64h-704v576h704v-576zM320 768v128h-64v-128h64zM704 768v128h-64v-128h64zM384 512v64h-64v-64h64zM512 512v64h-64v-64h64zM640 512v64h-64v-64h64zM768 512v64h-64v-64h64zM256 384v64h-64v-64h64zM384 384v64h-64v-64h64zM512 384v64h-64v-64h64zM640 384v64h-64v-64h64zM768 384v64h-64v-64h64zM256 256v64h-64v-64h64zM384 256v64h-64v-64h64zM512 256v64h-64v-64h64zM640 256v64h-64v-64h64zM768 256v64h-64v-64h64zM256 128v64h-64v-64h64zM384 128v64h-64v-64h64zM512 128v64h-64v-64h64zM640 128v64h-64v-64h64z" />
<glyph unicode="&#xe920;" glyph-name="check" data-tags="check" horiz-adv-x="768" d="M768 640l-512-512-256 256 96 96 160-160 416 416 96-96z" />
<glyph unicode="&#xe921;" glyph-name="checklist" data-tags="checklist" d="M1024 416l-96 96-288-288-96 96-96-96 192-192 384 384zM364.8 179.2l51.2-51.2h-288c-35.2 0-64 28.8-64 64v576c0 35.2 28.8 64 64 64h448c35.2 0 64-28.8 64-64v-416l-51.2 51.2c-24.96 24.96-65.92 24.96-90.88 0l-133.12-134.4c-11.563-11.54-18.716-27.495-18.716-45.12s7.153-33.58 18.715-45.119l0.001-0.001v0.64zM256 704h320v64h-320v-64zM256 576h320v64h-320v-64zM256 448h192v64h-192v-64zM192 384h-64v-64h64v64zM192 512h-64v-64h64v64zM192 640h-64v-64h64v64zM192 768h-64v-64h64v64z" />
<glyph unicode="&#xe922;" glyph-name="circle-slash" data-tags="circle-slash" horiz-adv-x="896" d="M448 896c-247.040 0-448-200.96-448-448s200.96-448 448-448 448 200.96 448 448-200.96 448-448 448zM448 812.8c83.2 0 160-28.16 222.080-74.88l-512-512c-46.628 60.956-74.757 138.221-74.88 222.051v0.029c0 200.96 163.84 364.8 364.8 364.8zM448 82.56c-83.2 0-160 28.16-222.080 74.88l512 512c46.72-62.080 74.88-138.88 74.88-222.080 0-200.96-163.84-364.8-364.8-364.8z" />
<glyph unicode="&#xe923;" glyph-name="circuit-board" data-tags="circuit-board" horiz-adv-x="896" d="M192 640c0-35.2 28.8-64 64-64s64 28.8 64 64c0 35.2-28.8 64-64 64s-64-28.8-64-64zM704 640c0-35.2-28.8-64-64-64s-64 28.8-64 64c0 35.2 28.8 64 64 64s64-28.8 64-64zM704 256c0-35.2-28.8-64-64-64s-64 28.8-64 64c0 35.2 28.8 64 64 64s64-28.8 64-64zM832 896c35.2 0 64-28.8 64-64v-768c0-35.2-28.8-64-64-64h-576l191.36 192h74.88c22.4-41.6 65.92-69.76 117.12-69.76 85.12 0 151.040 77.44 131.2 165.76-10.88 48-49.92 87.040-97.92 99.2-64.64 14.72-122.88-17.28-149.76-67.2h-138.88l-320-320c-35.2 0-64 28.8-64 64v768c0 35.2 28.8 64 64 64h128v-138.88c-51.2-26.88-81.92-84.48-65.92-149.76 11.52-47.36 50.56-86.4 97.28-97.28 64.64-16 122.88 14.72 149.76 65.92h149.12c22.4-41.6 65.92-69.76 117.12-69.76 85.12 0 151.040 77.44 131.2 165.76-10.88 48-49.92 87.040-97.92 99.2-64.64 14.72-122.88-17.28-149.76-67.2h-149.76c-12.16 23.040-30.080 40.96-53.12 53.12v138.88h512z" />
<glyph unicode="&#xe924;" glyph-name="clippy" data-tags="clippy" horiz-adv-x="896" d="M128 128v-64h256v64h-256zM448 512v-64h-320v64h320zM576 320h320v-128h-320v-128l-192 192 192 192v-128zM288 384v-64h-160v64h160zM128 192v64h160v-64h-160zM704 128h64v-128c-1.28-17.92-7.040-33.28-19.2-44.8s-26.88-17.92-44.8-19.2h-640c-35.2 0-64 28.8-64 64v704c0 35.2 28.8 64 64 64h192c0 71.040 56.96 128 128 128s128-56.96 128-128h192c35.2 0 64-28.8 64-64v-320h-64v192h-640v-576h640v128zM128 640h512c0 35.2-28.8 64-64 64h-64c-35.2 0-64 28.8-64 64s-28.8 64-64 64-64-28.8-64-64-28.8-64-64-64h-64c-35.2 0-64-28.8-64-64z" />
<glyph unicode="&#xe925;" glyph-name="clock" data-tags="clock" horiz-adv-x="896" d="M512 448v256h-128v-320c0-35.2 28.8-64 64-64h256v128h-192zM448 812.8c200.96 0 364.8-163.84 364.8-364.8s-163.84-364.8-364.8-364.8c-201.327 0.364-364.437 163.473-364.8 364.765v0.035c0 200.96 163.84 364.8 364.8 364.8zM448 896c-247.040 0-448-200.96-448-448s200.96-448 448-448 448 200.96 448 448-200.96 448-448 448z" />
<glyph unicode="&#xe926;" glyph-name="cloud-download" data-tags="cloud-download" d="M576 192v320h-128v-320h-128l192-192 192 192h-128zM768 704c133.12 0 256-67.84 256-224 0-149.76-122.88-224-256-224h-128v83.2h128c28.8 0 172.8 7.040 172.8 140.8 0 126.72-120.96 140.8-172.8 140.8h-83.2v76.8c-4.48 16-41.6 115.2-204.8 115.2-104.96 0-204.8-83.84-204.8-172.8v-83.2h-83.2c-105.6 0-108.8-97.92-108.8-108.8 0-17.92 5.12-108.8 108.8-108.8h192v-83.2h-192c-128 0-192 94.080-192 192 0 94.72 65.28 192 192 192 0 133.12 133.12 256 288 256 229.76 0 288-163.84 288-192z" />
<glyph unicode="&#xe927;" glyph-name="cloud-upload" data-tags="cloud-upload" d="M448 384v-320h128v320h128l-192 192-192-192h128zM768 640c133.12 0 256-67.84 256-224 0-149.76-122.88-224-256-224h-128v83.2h128c28.8 0 172.8 7.040 172.8 140.8 0 126.72-120.96 140.8-172.8 140.8h-83.2v76.8c-4.48 16-41.6 115.2-204.8 115.2-104.96 0-204.8-83.84-204.8-172.8v-83.2h-83.2c-105.6 0-108.8-97.92-108.8-108.8 0-17.92 5.12-108.8 108.8-108.8h192v-83.2h-192c-128 0-192 94.080-192 192 0 94.72 65.28 192 192 192 0 133.12 133.12 256 288 256 229.76 0 288-163.84 288-192z" />
<glyph unicode="&#xe928;" glyph-name="code" data-tags="code" horiz-adv-x="896" d="M608 768l-96-96 224-224-224-224 96-96 288 320-288 320zM288 768l-288-320 288-320 96 96-224 224 224 224-96 96z" />
<glyph unicode="&#xe929;" glyph-name="comment" data-tags="comment" d="M896 896h-768c-35.2 0-64-28.8-64-64v-512c0-35.2 28.8-64 64-64h128v-224l224 224h416c35.2 0 64 28.8 64 64v512c0 35.2-28.8 64-64 64zM896 320h-448l-128-128v128h-192v512h768v-512z" />
<glyph unicode="&#xe92a;" glyph-name="comment-discussion" data-tags="comment-discussion" d="M960 896h-576c-35.2 0-64-28.8-64-64v-128h-256c-35.2 0-64-28.8-64-64v-384c0-35.2 28.8-64 64-64h64v-192l192 192h256c35.2 0 64 28.8 64 64v128h64l192-192v192h64c35.2 0 64 28.8 64 64v384c0 35.2-28.8 64-64 64zM576 256h-288l-96-96v96h-128v384h256v-192c0-35.2 28.8-64 64-64h192v-128zM960 448h-128v-96l-96 96h-352v384h576v-384z" />
<glyph unicode="&#xe92b;" glyph-name="credit-card" data-tags="credit-card" d="M768 384v64h-640v-64h640zM1024 768v-576c0-35.2-28.8-64-64-64h-896c-35.2 0-64 28.8-64 64v576c0 35.2 28.8 64 64 64h896c35.2 0 64-28.8 64-64zM960 576h-896v-384h896v384zM960 768h-896v-64h896v64zM384 320v-64h-256v64h256z" />
<glyph unicode="&#xe92c;" glyph-name="dash" data-tags="dash" horiz-adv-x="512" d="M0 512v-128h512v128h-512z" />
<glyph unicode="&#xe92d;" glyph-name="dashboard" data-tags="dashboard" d="M576 640v64h-64v-64h64zM832 448v-64h-64v64h64zM384 640v-64h-64v64h64zM320 448v-64h-64v64h64zM1024 800l-384-357.12v-58.88c0-35.2-28.8-64-64-64h-64c-35.2 0-64 28.8-64 64v64c0 35.2 28.8 64 64 64 0 0 60.16 1.28 64 0l416 320 32-32zM922.24 538.24l64 64c24.96-56.96 37.76-120.32 37.76-186.24 0-264.96-215.040-480-480-480s-480 215.040-480 480c0 264.96 215.040 480 480.64 480h0.027c100.399-0.105 193.54-31.203 268.773-83.2l-60.16-60.16c-61.44 38.4-132.48 60.16-209.28 60.16-218.88 0-396.8-177.92-396.8-396.8s178.56-396.8 397.44-396.8c218.88 0 396.8 177.92 396.8 396.8 0 42.24-7.040 83.2-19.2 122.24z" />
<glyph unicode="&#xe92e;" glyph-name="database" data-tags="database" horiz-adv-x="768" d="M384 0c211.84 0 384 57.6 384 128v128c0 10.88-5.12 21.76-13.44 32-42.88-55.040-192-96-370.56-96s-327.68 40.96-370.56 96c-7.68-10.24-13.44-21.12-13.44-32v-128c0-70.4 172.16-128 384-128zM384 256c211.84 0 384 57.6 384 128v128c0 6.4-2.56 13.44-5.76 19.84-1.92 3.84-4.48 8.32-7.68 12.16-42.88-55.040-192-96-370.56-96s-327.68 40.96-370.56 96c-3.2-3.84-5.76-8.32-7.68-12.16-3.2-6.4-5.76-12.8-5.76-19.84v-128c0-70.4 172.16-128 384-128zM384 512c-211.84 0-384 57.6-384 128v128c0 70.4 172.16 128 384 128s384-57.6 384-128v-128c0-70.4-172.16-128-384-128zM384 832c-141.44 0-256-28.8-256-64s114.56-64 256-64 256 28.8 256 64-114.56 64-256 64z" />
<glyph unicode="&#xe92f;" glyph-name="desktop-download" data-tags="desktop-download" d="M256 576l256-256 256 256h-192v384h-128v-384h-192zM960 832c35.2 0 64-28.8 64-64v-576c0-35.2-28.8-64-64-64h-341.76c16-39.040 55.040-88.96 149.76-128h-512c94.72 39.040 133.76 88.96 149.76 128h-341.76c-35.2 0-64 28.8-64 64v576c0 35.2 28.8 64 64 64h256v-64h-256v-512h896v512h-256v64h256z" />
<glyph unicode="&#xe930;" glyph-name="device-camera" data-tags="device-camera" d="M960 768h-512c0 35.2-28.8 64-64 64h-256c-35.2 0-64-28.8-64-64-35.2 0-64-28.8-64-64v-576c0-35.2 28.8-64 64-64h896c35.2 0 64 28.8 64 64v576c0 35.2-28.8 64-64 64zM384 640h-256v64h256v-64zM672 192c-124.16 0-224 99.84-224 224s99.84 224 224 224 224-99.84 224-224-99.84-224-224-224zM832 416c0 87.68-72.32 160-160 160s-160-72.32-160-160c0-87.68 72.32-160 160-160s160 71.68 160 160z" />
<glyph unicode="&#xe931;" glyph-name="device-camera-video" data-tags="device-camera-video" d="M972.8 826.24l-332.8-232.32v174.080c0 35.2-28.8 64-64 64h-512c-35.2 0-64-28.8-64-64v-576c0-35.2 28.8-64 64-64h512c35.2 0 64 28.8 64 64v174.080l332.8-232.32c21.12-14.72 51.2 0 51.2 26.24v640c0 26.24-30.080 40.96-51.2 26.24z" />
<glyph unicode="&#xe932;" glyph-name="device-desktop" data-tags="device-desktop" d="M960 832h-896c-35.2 0-64-28.8-64-64v-576c0-35.2 28.8-64 64-64h341.76c-16-39.040-55.040-88.96-149.76-128h512c-94.72 39.040-133.76 88.96-149.76 128h341.76c35.2 0 64 28.8 64 64v576c0 35.2-28.8 64-64 64zM960 256h-896v512h896v-512z" />
<glyph unicode="&#xe933;" glyph-name="device-mobile" data-tags="device-mobile" horiz-adv-x="640" d="M576 960h-512c-35.2 0-64-28.8-64-64v-896c0-35.2 28.8-64 64-64h512c35.2 0 64 28.8 64 64v896c0 35.2-28.8 64-64 64zM320-19.2c-46.080 0-83.2 37.12-83.2 83.2s37.12 83.2 83.2 83.2c46.080 0 83.2-37.12 83.2-83.2s-37.12-83.2-83.2-83.2zM576 192h-512v640h512v-640z" />
<glyph unicode="&#xe934;" glyph-name="diff" data-tags="diff" horiz-adv-x="832" d="M384 512v128h-64v-128h-128v-64h128v-128h64v128h128v64h-128zM192 128v64h320v-64h-320zM480 832l224-224v-608c0-35.2-28.8-64-64-64h-576c-35.2 0-64 28.8-64 64v768c0 35.2 28.8 64 64 64h416zM640 576l-192 192h-384v-768h576v576zM544 960l288-288v-544h-64v512l-256 256h-320v64h352z" />
<glyph unicode="&#xe935;" glyph-name="diff-added" data-tags="diff-added" horiz-adv-x="896" d="M832 896h-768c-35.2 0-64-28.8-64-64v-768c0-35.2 28.8-64 64-64h768c35.2 0 64 28.8 64 64v768c0 35.2-28.8 64-64 64zM832 64h-768v768h768v-768zM384 384v-192h128v192h192v128h-192v192h-128v-192h-192v-128h192z" />
<glyph unicode="&#xe936;" glyph-name="diff-ignored" data-tags="diff-ignored" horiz-adv-x="896" d="M832 896h-768c-35.2 0-64-28.8-64-64v-768c0-35.2 28.8-64 64-64h768c35.2 0 64 28.8 64 64v768c0 35.2-28.8 64-64 64zM832 64h-768v768h768v-768zM288 192l416 416v96h-96l-416-416v-96h96z" />
<glyph unicode="&#xe937;" glyph-name="diff-modified" data-tags="diff-modified" horiz-adv-x="896" d="M832 896h-768c-35.2 0-64-28.8-64-64v-768c0-35.2 28.8-64 64-64h768c35.2 0 64 28.8 64 64v768c0 35.2-28.8 64-64 64zM832 64h-768v768h768v-768zM256 448c0-106.24 85.76-192 192-192s192 85.76 192 192c0 106.24-85.76 192-192 192s-192-85.76-192-192z" />
<glyph unicode="&#xe938;" glyph-name="diff-removed" data-tags="diff-removed" horiz-adv-x="896" d="M832 896h-768c-35.2 0-64-28.8-64-64v-768c0-35.2 28.8-64 64-64h768c35.2 0 64 28.8 64 64v768c0 35.2-28.8 64-64 64zM832 64h-768v768h768v-768zM704 384v128h-512v-128h512z" />
<glyph unicode="&#xe939;" glyph-name="diff-renamed" data-tags="diff-renamed" horiz-adv-x="896" d="M384 384v-192l320 256-320 256v-192h-192v-128h192zM896 832v-768c0-35.2-28.8-64-64-64h-768c-35.2 0-64 28.8-64 64v768c0 35.2 28.8 64 64 64h768c35.2 0 64-28.8 64-64zM832 832h-768v-768h768v768z" />
<glyph unicode="&#xe93a;" glyph-name="ellipsis" data-tags="ellipsis" horiz-adv-x="768" d="M704 640h-640c-35.2 0-64-28.8-64-64v-256c0-35.2 28.8-64 64-64h640c35.2 0 64 28.8 64 64v256c0 35.2-28.8 64-64 64zM256 384h-128v128h128v-128zM448 384h-128v128h128v-128zM640 384h-128v128h128v-128z" />
<glyph unicode="&#xe93b;" glyph-name="eye" data-tags="eye" d="M515.84 832c-323.84 0-515.84-384-515.84-384s192-384 515.84-384c316.16 0 508.16 384 508.16 384s-192 384-508.16 384zM512 192c-140.8 0-256 113.92-256 256 0 140.8 115.2 256 256 256 142.080 0 256-115.2 256-256 0-142.080-113.92-256-256-256zM640 448c0 71.040-56.96 128-128 128s-128-56.96-128-128c0-71.040 56.96-128 128-128s128 56.96 128 128z" />
<glyph unicode="&#xe93c;" glyph-name="file" data-tags="file" horiz-adv-x="768" d="M384 640v64h-256v-64h256zM128 448v64h448v-64h-448zM128 320v64h448v-64h-448zM128 192v64h448v-64h-448zM768 672v-608c0-35.2-28.8-64-64-64h-640c-35.2 0-64 28.8-64 64v768c0 35.2 28.8 64 64 64h480l224-224zM704 640l-192 192h-448v-768h640v576z" />
<glyph unicode="&#xe93d;" glyph-name="file-binary" data-tags="file-binary" horiz-adv-x="768" d="M256 192v192h-128v-64h64v-128h-64v-64h192v64h-64zM768 672v-608c0-35.2-28.8-64-64-64h-640c-35.2 0-64 28.8-64 64v768c0 35.2 28.8 64 64 64h480l224-224zM704 640l-192 192h-448v-768h640v576zM512 704v-192h64v-64h-192v64h64v128h-64v64h128zM128 704h192v-256h-192v256zM192 512h64v128h-64v-128zM384 384h192v-256h-192v256zM448 192h64v128h-64v-128z" />
<glyph unicode="&#xe93e;" glyph-name="file-code" data-tags="file-code" horiz-adv-x="768" d="M544 896h-480c-35.2 0-64-28.8-64-64v-768c0-35.2 28.8-64 64-64h640c35.2 0 64 28.8 64 64v608l-224 224zM704 64h-640v768h448l192-192v-576zM320 513.28l-32 62.72-160-160 160-160 32 64-96 96 96 97.28zM480 576l-32-64 96-96-96-97.28 32-62.72 160 160-160 160z" />
<glyph unicode="&#xe93f;" glyph-name="file-directory" data-tags="file-directory" horiz-adv-x="896" d="M832 704h-384v64c0 42.24-19.84 64-64 64h-320c-35.2 0-64-28.8-64-64v-640c0-35.2 28.8-64 64-64h768c35.2 0 64 28.8 64 64v512c0 35.2-28.8 64-64 64zM384 704h-320v64h320v-64z" />
<glyph unicode="&#xe940;" glyph-name="file-media" data-tags="file-media" horiz-adv-x="768" d="M384 640v-128h128v128h-128zM768 672v-608c0-35.2-28.8-64-64-64h-640c-35.2 0-64 28.8-64 64v768c0 35.2 28.8 64 64 64h480l224-224zM704 640l-192 192h-448v-704l192 320 128-256 128 128 192-192v512z" />
<glyph unicode="&#xe941;" glyph-name="file-pdf" data-tags="file-pdf" horiz-adv-x="768" d="M544 896h-480c-35.346 0-64-28.654-64-64v0-768c0-35.346 28.654-64 64-64v0h640c35.346 0 64 28.654 64 64v0 608l-224 224zM64 832h256c-7.922-2.484-14.633-6.92-19.8-12.754l-0.040-0.046c-7.040-8.318-12.185-18.465-14.636-29.622l-0.084-0.458c-4.779-19.008-7.521-40.83-7.521-63.291 0-10.849 0.64-21.548 1.883-32.062l-0.123 1.273c3.84-38.976 11.072-77.504 21.76-115.2-23.254-67.761-47.256-123.998-74.694-178.2l3.654 7.96c-32-64-51.2-106.24-58.24-117.76-18.074-6.76-32.632-13.224-46.768-20.401l2.608 1.201c-23.168-10.56-44.736-24.32-64-40.96v600.32zM346.88 524.8c16.123-51.781 41.793-96.471 75.207-134.135l-0.327 0.375c17.6-15.168 38.080-26.688 60.16-33.92-40.96-5.76-78.72-12.8-115.84-21.12-39.552-9.6-78.272-22.208-115.84-37.76s14.080 28.16 39.040 80c23.36 47.36 42.88 96.64 58.24 147.2l-0.64-0.64zM704 64h-608c-1.633-0.199-3.523-0.312-5.44-0.312s-3.807 0.113-5.665 0.334l0.225-0.022c18.111 6.514 33.665 16.095 46.811 28.243l-0.091-0.083c44.188 43.86 82.071 93.984 112.226 148.949l1.694 3.371c19.84 8.32 37.12 14.72 51.84 19.84l26.88 8.96c28.8 8.32 60.16 14.72 92.16 21.12s64 10.24 94.72 12.8c28.608-13.824 58.368-25.216 88.96-33.92 25.792-7.040 52.096-12.032 78.72-14.72h24.32v-194.56h0.64zM704 375.040c-11.606 6.584-25.143 12.645-39.272 17.424l-1.688 0.496c-14.017 3.527-30.441 6.038-47.279 7.007l-0.721 0.033c-26.304-0.192-52.608-1.92-78.72-5.12-24.865 9.801-46.141 23.678-64.053 41.011l0.053-0.051c-36.955 41.414-65.343 91.324-81.852 146.37l-0.708 2.75c7.104 42.304 11.392 85.12 12.8 128 1.28 16 1.28 32 0 48 1.036 4.421 1.63 9.497 1.63 14.712 0 15.775-5.436 30.281-14.536 41.746l0.106-0.139c-9.434 9.144-22.313 14.781-36.509 14.781-0.89 0-1.775-0.022-2.654-0.066l0.124 0.005h161.28l192-192v-264.96z" />
<glyph unicode="&#xe942;" glyph-name="file-submodule" data-tags="file-submodule" horiz-adv-x="896" d="M640 512h-384v-448h576c35.2 0 64 28.8 64 64v320h-256v64zM576 384h-256v64h256v-64zM832 704h-384v64c0 42.24-19.84 64-64 64h-320c-35.2 0-64-28.8-64-64v-640c0-35.2 28.8-64 64-64h128v448c0 35.2 28.8 64 64 64h384c35.2 0 64-28.8 64-64h192v128c0 35.2-28.8 64-64 64zM384 704h-320v64h320v-64z" />
<glyph unicode="&#xe943;" glyph-name="file-symlink-directory" data-tags="file-symlink-directory" horiz-adv-x="896" d="M832 704h-384v64c0 42.24-19.84 64-64 64h-320c-35.2 0-64-28.8-64-64v-640c0-35.2 28.8-64 64-64h768c35.2 0 64 28.8 64 64v512c0 35.2-28.8 64-64 64zM64 768h320v-64h-320v64zM448 192v128c-62.72 1.28-117.76-14.080-163.2-44.8s-76.16-80-92.8-147.2c1.28 104.96 24.96 184.32 72.32 238.72 46.72 53.76 108.16 81.28 184.32 81.28v128l256-192-256-192h-0.64z" />
<glyph unicode="&#xe944;" glyph-name="file-symlink-file" data-tags="file-symlink-file" horiz-adv-x="768" d="M544 896h-480c-35.2 0-64-28.8-64-64v-768c0-35.2 28.8-64 64-64h640c35.2 0 64 28.8 64 64v608l-224 224zM704 64h-640v768h448l192-192v-576zM384 672h0.64v-128c-76.16 0-137.6-27.52-184.32-81.28-47.36-54.4-71.040-133.76-72.32-238.72 16.64 67.2 47.36 116.48 92.8 147.2s100.48 46.080 163.2 44.8v-128l256 192-256 192z" />
<glyph unicode="&#xe945;" glyph-name="file-zip" data-tags="file-zip" horiz-adv-x="768" d="M544 896h-480c-35.346 0-64-28.654-64-64v0-768c0-35.346 28.654-64 64-64v0h640c35.346 0 64 28.654 64 64v0 608l-224 224zM704 64h-640v768h192v-64h64v64h192l192-192v-576zM320 704h64v64h-64v-64zM256 704v-64h64v64h-64zM320 576h64v64h-64v-64zM256 576v-64h64v64h-64zM320 448h64v64h-64v-64zM256 366.080c-38.313-22.415-63.708-63.249-64-110.038v-64.042h256v64c0 70.692-57.308 128-128 128v0 64h-64v-81.92zM384 320v-64h-128v64h128z" />
<glyph unicode="&#xe946;" glyph-name="flame" data-tags="flame" horiz-adv-x="768" d="M323.2 940.16c51.84-138.88 26.24-216.32-33.28-275.84-62.72-67.2-163.2-117.12-232.32-215.040-92.8-131.2-108.8-417.92 225.92-492.8-140.8 74.24-170.88 289.28-19.2 423.040-39.040-129.92 33.92-213.12 124.16-183.040 88.96 30.080 147.2-33.92 145.28-106.88-1.28-49.92-19.84-92.16-72.32-115.84 218.88 37.76 305.92 218.88 305.92 355.84 0 181.76-161.92 206.080-80 359.040-97.28-8.32-129.92-72.32-120.96-176 5.76-69.12-65.28-115.2-119.040-85.12-42.88 26.24-42.24 76.16-3.84 113.92 80 78.72 112 261.76-120.32 398.080l-1.28 1.28 1.28-0.64z" />
<glyph unicode="&#xe947;" glyph-name="fold" data-tags="fold" horiz-adv-x="896" d="M448 384l-192-192h128v-192h128v192h128l-192 192zM640 768l-192-192-192 192h128v192h128v-192h128zM896 640l-160-160 160-160c0-35.2-28.8-64-64-64h-160l-64 64h192l-128 128h-448l-128-128h192l-64-64h-160c-35.2 0-64 28.8-64 64l160 160-160 160c0 35.2 28.8 64 64 64h160l64-64h-192l128-128h448l128 128h-192l64 64h160c35.2 0 64-28.8 64-64z" />
<glyph unicode="&#xe948;" glyph-name="gear" data-tags="gear" horiz-adv-x="896" d="M896 398.72v102.4l-124.16 40.96-28.8 69.76 56.32 117.76-72.32 72.32-115.84-58.24-69.76 28.8-44.16 122.88h-102.4l-40.32-124.16-71.040-28.8-117.76 56.32-72.32-72.32 58.24-115.84-28.8-69.76-122.88-43.52v-101.76l124.16-40.96 28.8-69.76-56.32-117.76 72.32-72.32 115.84 58.24 69.76-28.8 44.16-122.88h101.76l40.32 124.16 71.040 28.8 117.76-56.32 72.32 72.32-58.88 115.84 30.080 69.76 122.88 44.16v-1.28zM448 256c-106.24 0-192 85.76-192 192s85.76 192 192 192 192-85.76 192-192-85.76-192-192-192z" />
<glyph unicode="&#xe949;" glyph-name="gift" data-tags="gift" horiz-adv-x="896" d="M832 704h-88.32c12.16 21.12 21.12 42.88 23.040 58.24 3.84 42.88-7.040 78.080-33.28 103.040-23.040 24.32-51.84 30.72-87.040 30.72h-7.040c-33.92-1.28-71.040-16-97.92-37.12s-46.72-46.080-62.080-76.8c-14.72 30.72-35.2 56.32-62.080 76.8s-64 37.12-97.92 37.12h-1.92c-35.84 0-67.84-5.76-92.16-30.72-26.24-24.96-37.12-60.16-33.28-103.040 1.92-14.72 10.88-37.12 23.040-58.24h-88.32c-35.2 0-64-28.8-64-64v-192h64v-320c0-35.2 28.8-64 64-64h576c35.2 0 64 28.8 64 64v320h64v192c0 35.2-28.8 64-64 64h1.28zM526.080 760.32c10.88 23.040 26.88 42.88 48 58.88 19.2 14.72 46.080 24.96 67.2 26.24h5.76c28.8 0 42.24-7.040 51.2-16s21.12-24.96 19.2-60.8c-3.2-12.16-16-39.040-32-64h-185.6l26.24 56.32v-0.64zM261.76 829.44c8.32 8.32 19.84 16 58.24 16 19.84 0 46.080-10.88 65.92-26.24 21.12-16 37.12-35.2 48-58.88l26.88-56.32h-185.6c-16 24.96-28.8 51.84-32 64-1.92 35.84 10.24 51.84 19.2 60.8l-0.64 0.64zM448 128.64h-256v319.36h256v-319.36zM448 512.64h-320v127.36h320v-127.36zM768 128.64h-256v319.36h256v-319.36zM832 512.64h-320v127.36h320v-127.36z" />
<glyph unicode="&#xe94a;" glyph-name="gist" data-tags="gist" horiz-adv-x="768" d="M480 640l-48-48 112-112-112-112 48-48 160 160-160 160zM288 640l48-48-112-112 112-112-48-48-160 160 160 160zM0 128v704c0 35.2 28.8 64 64 64h640c35.2 0 64-28.8 64-64v-704c0-35.2-28.8-64-64-64h-640c-35.2 0-64 28.8-64 64zM64 128h640v704h-640v-704z" />
<glyph unicode="&#xe94b;" glyph-name="gist-secret" data-tags="gist-secret" horiz-adv-x="896" d="M512 288l48 96h-224l48-96-64-224h256l-64 224zM640 576l128-64h-640l128 64h384zM576 832l64-192h-384l64 192 128-64 128 64zM833.92 336c33.92-8.96 55.040-44.16 46.080-78.080l-35.84-145.92c-7.040-28.16-33.28-48-62.080-48h-206.080l128 192-64 128 193.92-48zM256 384l-64-128 128-192h-206.080c-28.8 0-55.040 19.84-62.080 48l-35.84 145.92c-8.96 33.92 12.16 69.12 46.080 78.080l193.92 48z" />
<glyph unicode="&#xe94c;" glyph-name="git-branch" data-tags="git-branch" horiz-adv-x="640" d="M640 640c0 71.040-56.96 128-128 128-0.1 0-0.219 0-0.337 0-70.445 0-127.552-57.107-127.552-127.552 0-47.009 25.43-88.079 63.285-110.202l0.604-0.326v-19.2c-1.28-33.28-14.72-62.72-40.32-88.32s-55.040-39.040-88.32-40.32c-53.12-1.28-94.72-10.24-128-28.8v304.64c38.459 22.45 63.889 63.519 63.889 110.528 0 70.445-57.107 127.552-127.552 127.552-0.119 0-0.237 0-0.355 0h0.018c-71.040 0-127.36-56.96-127.36-128 0.292-46.831 25.687-87.665 63.396-109.753l0.604-0.327v-419.84c-37.76-22.4-64-63.36-64-110.080 0-71.040 56.96-128 128-128s128 56.96 128 128c0 33.92-12.8 64-33.92 87.040 5.76 3.84 30.72 26.24 37.76 30.080 16 7.040 35.84 10.88 60.16 10.88 67.2 3.2 124.8 28.8 176 80s76.8 126.72 80 193.28h-1.28c39.040 23.040 65.28 64 65.28 110.72zM128 844.8c42.24 0 76.8-35.2 76.8-76.8s-35.2-76.8-76.8-76.8c-41.6 0-76.8 35.2-76.8 76.8s35.2 76.8 76.8 76.8zM128 50.56c-42.24 0-76.8 35.2-76.8 76.8s35.2 76.8 76.8 76.8c41.6 0 76.8-35.2 76.8-76.8s-35.2-76.8-76.8-76.8zM512 562.56c-42.24 0-76.8 35.2-76.8 76.8s35.2 76.8 76.8 76.8c41.6 0 76.8-35.2 76.8-76.8s-35.2-76.8-76.8-76.8z" />
<glyph unicode="&#xe94d;" glyph-name="git-commit" data-tags="git-commit" horiz-adv-x="896" d="M695.040 512c-28.8 110.080-128 192-247.040 192s-218.24-81.92-247.040-192h-200.96v-128h200.96c28.8-110.080 128-192 247.040-192s218.24 81.92 247.040 192h200.96v128h-200.96zM448 307.2c-78.080 0-140.8 62.72-140.8 140.8s62.72 140.8 140.8 140.8c78.080 0 140.8-62.72 140.8-140.8s-62.72-140.8-140.8-140.8z" />
<glyph unicode="&#xe94e;" glyph-name="git-compare" data-tags="git-compare" horiz-adv-x="896" d="M320 192h-64c-17.28 1.28-30.72 7.040-44.16 19.84s-19.2 26.88-19.84 44.16v401.92c38.459 22.45 63.889 63.519 63.889 110.528 0 70.445-57.107 127.552-127.552 127.552-0.119 0-0.237 0-0.355 0h0.018c-0.1 0-0.219 0-0.337 0-70.445 0-127.552-57.107-127.552-127.552 0-47.009 25.43-88.079 63.285-110.202l0.604-0.326v-401.92c1.92-49.92 21.76-94.080 60.16-131.84s81.92-58.24 131.84-60.16h64v-128l192 192-192 192v-128zM128 844.8c42.24 0 76.8-35.2 76.8-76.8s-35.2-76.8-76.8-76.8c-41.6 0-76.8 35.2-76.8 76.8s35.2 76.8 76.8 76.8zM832 238.080v401.92c-1.92 49.92-21.76 94.080-60.16 131.84s-81.92 58.24-131.84 60.16h-64v128l-192-192 192-192v128h64c17.28-1.28 30.72-7.040 44.16-19.84s19.2-26.88 19.84-44.16v-401.92c-38.459-22.45-63.889-63.519-63.889-110.528 0-70.445 57.107-127.552 127.552-127.552 0.119 0 0.237 0 0.355 0h-0.018c0.1 0 0.219 0 0.337 0 70.445 0 127.552 57.107 127.552 127.552 0 47.009-25.43 88.079-63.285 110.202l-0.604 0.326zM768 51.2c-42.24 0-76.8 35.2-76.8 76.8s35.2 76.8 76.8 76.8c41.6 0 76.8-35.2 76.8-76.8s-35.2-76.8-76.8-76.8z" />
<glyph unicode="&#xe94f;" glyph-name="git-merge" data-tags="git-merge" horiz-adv-x="768" d="M640 512c-46.72 0-88.32-26.24-110.72-65.28v1.28c-67.2 1.28-145.28 23.040-200.32 65.28-48 37.12-96 103.040-120.96 156.16 29.322 23.571 47.93 59.437 47.93 99.649 0 70.445-57.107 127.552-127.552 127.552-0.133 0-0.266 0-0.399-0.001h0.021c-71.040 0-128-57.6-128-128.64 0.292-46.831 25.687-87.665 63.396-109.753l0.604-0.327v-419.84c-37.76-22.4-64-63.36-64-110.080 0-71.040 56.96-128 128-128 0.1 0 0.219 0 0.337 0 70.445 0 127.552 57.107 127.552 127.552 0 47.009-25.43 88.079-63.285 110.202l-0.604 0.326v231.040c42.88-44.8 92.16-81.28 147.2-108.16s129.92-40.32 190.080-40.96v1.28c23.040-39.040 64-65.28 110.72-65.28 71.040 0 128 56.96 128 128s-56.96 128-128 128zM204.8 128c0-42.24-35.2-76.8-76.8-76.8s-76.8 35.2-76.8 76.8c0 41.6 35.2 76.8 76.8 76.8s76.8-35.2 76.8-76.8zM128 691.2c-42.24 0-76.8 35.2-76.8 76.8s35.2 76.8 76.8 76.8c41.6 0 76.8-35.2 76.8-76.8s-35.2-76.8-76.8-76.8zM640 307.2c-42.24 0-76.8 35.2-76.8 76.8s35.2 76.8 76.8 76.8c41.6 0 76.8-35.2 76.8-76.8s-35.2-76.8-76.8-76.8z" />
<glyph unicode="&#xe950;" glyph-name="git-pull-request" data-tags="git-pull-request" horiz-adv-x="768" d="M704 238.080v401.92c-1.92 49.92-21.76 94.080-60.16 131.84s-81.92 58.24-131.84 60.16h-64v128l-192-192 192-192v128h64c17.28-1.28 30.72-7.040 44.16-19.84s19.2-26.88 19.84-44.16v-401.92c-38.459-22.45-63.889-63.519-63.889-110.528 0-70.445 57.107-127.552 127.552-127.552 0.119 0 0.237 0 0.355 0h-0.018c0.1 0 0.219 0 0.337 0 70.445 0 127.552 57.107 127.552 127.552 0 47.009-25.43 88.079-63.285 110.202l-0.604 0.326zM640 51.2c-42.24 0-76.8 35.2-76.8 76.8s35.2 76.8 76.8 76.8c41.6 0 76.8-35.2 76.8-76.8s-35.2-76.8-76.8-76.8zM256 768c0 71.040-56.96 128-128 128-0.1 0-0.219 0-0.337 0-70.445 0-127.552-57.107-127.552-127.552 0-47.009 25.43-88.079 63.285-110.202l0.604-0.326v-419.84c-38.459-22.45-63.889-63.519-63.889-110.528 0-70.445 57.107-127.552 127.552-127.552 0.119 0 0.237 0 0.355 0h-0.018c0.1 0 0.219 0 0.337 0 70.445 0 127.552 57.107 127.552 127.552 0 47.009-25.43 88.079-63.285 110.202l-0.604 0.326v419.84c37.76 21.76 64 62.72 64 110.080zM204.8 128c0-42.24-35.2-76.8-76.8-76.8s-76.8 35.2-76.8 76.8c0 41.6 35.2 76.8 76.8 76.8s76.8-35.2 76.8-76.8zM128 691.2c-42.24 0-76.8 35.2-76.8 76.8s35.2 76.8 76.8 76.8c41.6 0 76.8-35.2 76.8-76.8s-35.2-76.8-76.8-76.8z" />
<glyph unicode="&#xe951;" glyph-name="globe" data-tags="globe" horiz-adv-x="896" d="M448 896c-247.040 0-448-200.96-448-448s200.96-448 448-448c30.72 0 60.16 3.2 88.32 8.96-10.88 5.12-12.8 46.72-1.28 69.76 12.16 26.24 51.84 92.8 12.8 115.2s-28.16 32-51.84 58.24c-23.68 26.24-14.080 30.080-16 37.12-5.12 21.76 23.040 56.96 24.96 60.16 1.28 3.84 1.28 17.28 0 21.12 0 5.12-17.28 14.080-21.76 14.72-3.84 0-7.040-7.040-12.8-8.32s-32 16-37.76 21.12c-5.76 5.12-8.96 14.72-17.28 21.76-8.32 8.32-8.96 1.92-21.12 7.040s-51.2 19.84-81.92 30.72c-30.72 12.16-33.28 30.080-33.28 42.24-1.28 12.8-19.2 30.080-26.88 42.88-8.96 12.8-10.24 30.080-12.8 26.24s16-49.92 12.8-51.84c-3.2-1.28-10.24 12.8-19.2 24.32-8.96 12.16 8.96 5.76-19.2 60.8s8.96 83.2 10.88 112c1.92 28.8 24.32-10.88 12.16 8.32s0 56.96-8.96 71.040c-8.32 14.080-56.32-16-56.32-16 1.28 14.080 44.16 37.12 74.24 58.88s49.92 3.84 74.24-3.2c24.96-8.32 26.24-5.76 17.92 3.2-8.32 8.32 3.84 10.88 23.040 8.32 17.92-3.2 24.32-26.24 53.12-23.040 30.080 1.92 3.2-5.76 7.040-14.080s-3.84-7.040-24.32-19.2c-19.2-12.8 1.28-14.080 35.2-39.040s24.32 16 19.84 35.2c-4.48 19.2 24.96 3.84 24.96 3.84 21.12-14.080 17.28-1.28 32-5.12s58.24-40.96 58.24-40.96c-53.12-28.16-19.84-30.72-10.88-37.76s-17.92-19.2-17.92-19.2c-10.88 10.88-12.16-1.28-19.2-5.12s-1.28-14.080-1.28-14.080c-35.84-5.76-28.16-44.16-26.88-53.12 0-8.96-24.32-23.040-30.080-37.12-5.76-12.8 16-40.96 3.84-42.24-12.16-1.92-21.76 42.24-83.84 26.24-19.2-5.12-60.16-26.24-37.76-69.12 23.040-44.16 58.88 12.16 71.040 5.76s-3.84-33.92-1.28-35.2c2.56-1.28 33.92-1.28 35.84-39.040s49.28-33.92 58.88-35.2c10.88 0 44.8 28.16 49.28 28.8 3.84 1.92 24.32 17.92 65.92-5.76 42.24-23.040 62.72-19.84 76.8-30.080s5.12-30.080 17.92-37.12c12.8-7.040 67.84 1.92 81.92-19.84s-56.32-133.76-78.080-145.92c-21.76-12.16-30.72-40.96-53.76-58.88s-51.84-40.96-81.28-58.24c-26.24-14.72-30.080-42.24-42.24-51.2 200.96 44.8 350.72 224 350.72 437.76 0 247.040-200.96 448-448 448l1.28 1.28zM552.96 476.16c-5.76-1.92-17.92-14.080-49.92 5.12-30.72 19.2-51.84 14.72-55.040 17.92 0 0-3.2 7.040 10.88 8.96 28.16 3.2 62.72-26.24 71.040-26.24s12.16 8.32 26.24 3.2c14.080-5.12 3.2-8.32-3.2-8.96zM405.76 851.2c-3.2 1.92 1.92 5.12 5.76 8.96 1.92 1.92 1.28 7.040 3.2 8.96 7.040 7.040 39.040 16 33.28-1.92-7.040-17.28-37.12-19.2-42.24-16zM484.48 794.24c-12.16 1.28-37.12 3.2-33.28 8.96 19.2 17.92-5.76 24.32-21.76 24.32-16 1.28-21.76 10.24-14.080 12.16s39.040-1.28 44.8-5.12c5.12-3.84 33.28-16 35.2-24.32 1.28-8.32 0-16-10.88-16zM578.56 797.44c-8.96-5.76-53.12 26.24-60.8 33.28-35.84 30.72-56.96 19.84-64 26.24s-5.12 12.16 7.040 21.76c12.16 9.6 44.16-3.84 64-5.76 19.2-1.92 42.24-17.28 42.24-35.2 1.28-16 21.12-32 12.16-40.32h-0.64z" />
<glyph unicode="&#xe952;" glyph-name="grabber" data-tags="grabber" horiz-adv-x="512" d="M512 704v-64h-512v64h512zM0 448h512v64h-512v-64zM0 256h512v64h-512v-64z" />
<glyph unicode="&#xe953;" glyph-name="graph" data-tags="graph" d="M1024 64v-64h-1024v960h64v-896h960zM320 128h-128v320h128v-320zM576 128h-128v640h128v-640zM832 128h-128v448h128v-448z" />
<glyph unicode="&#xe954;" glyph-name="heart" data-tags="heart" horiz-adv-x="768" d="M576 832c-62.080 0-108.16-26.88-140.8-64s-49.92-58.88-51.2-64c-1.28 5.12-17.92 26.88-51.2 64s-74.88 64-140.8 64c-104.448-5.504-189.056-85.312-192-192 0-33.28 5.76-97.28 42.88-170.88s149.76-188.16 341.12-341.12c190.72 152.96 305.28 266.88 341.76 341.12s42.24 138.88 42.24 170.88c-3.008 108.16-85.888 186.432-192 192z" />
<glyph unicode="&#xe955;" glyph-name="history" data-tags="history" horiz-adv-x="896" d="M512 128v320h192v128h-320v-448h128zM448 896c247.040 0 448-200.96 448-448s-200.96-448-448-448c-247.040 0-448 200.96-448 448 0 21.76 1.92 42.88 5.12 64h83.84c-3.84-21.12-5.76-42.24-5.76-64v-0.035c0.363-201.292 163.473-364.402 364.8-364.765 200.96 0 364.8 163.84 364.8 364.8s-163.84 364.8-364.8 364.8c-117.12 0-220.8-55.68-288-140.8l96-96h-256v256l101.76-101.76c81.92 100.48 206.080 165.76 346.24 165.76z" />
<glyph unicode="&#xe956;" glyph-name="horizontal-rule" data-tags="horizontal-rule" horiz-adv-x="640" d="M64 512h128v-128h64v384h-64v-192h-128v192h-64v-384h64v128zM640 384v128h-64v-128h64zM640 576v128h-64v-128h64zM448 576v128h128v64h-192v-384h64v128h128v64h-128zM0 128h640v128h-640v-128z" />
<glyph unicode="&#xe957;" glyph-name="hubot" data-tags="hubot" horiz-adv-x="896" d="M192 576c-35.2 0-64-28.8-64-64v-128c0-35.2 28.8-64 64-64h512c35.2 0 64 28.8 64 64v128c0 35.2-28.8 64-64 64h-512zM704 464l-80-80h-96l-80 80-80-80h-96l-80 80v48h48l80-80 80 80h96l80-80 80 80h48v-48zM320 256v-64h256v64h-256zM448 832c-247.040 0-448-186.24-448-416v-288c0-35.2 28.8-64 64-64h768c35.2 0 64 28.8 64 64v288c0 229.76-200.96 416-448 416zM832 128h-768v288c0 197.76 168.96 357.76 384 357.76s384-160 384-357.76v-288z" />
<glyph unicode="&#xe958;" glyph-name="inbox" data-tags="inbox" horiz-adv-x="896" d="M896 384l-72.32 456.96c-5.12 30.72-32 55.040-64 55.040h-623.36c-32 0-58.88-24.32-64-55.040l-72.32-456.96v-320c0-35.2 28.8-64 64-64h768c35.2 0 64 28.8 64 64v320zM686.080 348.8l-28.16-56.96c-10.88-21.76-33.28-35.84-58.24-35.84h-304.64c-24.32 0-46.080 14.080-56.96 35.2l-28.16 58.24c-10.88 21.12-33.28 35.2-56.96 35.2h-88.96l64 448h640l64-448h-88.32c-24.96 0-46.72-14.080-58.24-35.2l0.64-0.64z" />
<glyph unicode="&#xe959;" glyph-name="info" data-tags="info" horiz-adv-x="896" d="M403.2 595.84c11.52-12.16 26.88-19.2 44.8-19.2l0.048 0.001c17.52 0.258 33.334 7.555 44.752 19.199 12.16 11.52 17.92 26.88 17.92 44.8s-6.4 32.64-17.92 44.8c-11.52 12.16-26.88 17.92-44.8 17.92s-32.64-6.4-44.8-17.92c-12.16-11.52-17.92-26.88-17.92-44.8l0.002 0.096c-0.021-0.656-0.032-1.315-0.032-1.976 0-16.792 6.866-31.981 17.949-42.919zM512 448.64v-192h64c-0.64-17.28-7.040-32-19.84-44.16-13.44-12.8-26.88-19.84-44.16-19.84h-64c-17.28 0-31.36 7.040-44.16 19.84-12.8 12.16-18.56 26.88-19.84 44.16v192h-64c0.64 16 7.040 31.36 19.84 44.16 13.44 11.52 26.88 18.56 44.16 19.84h64c17.28-0.64 31.36-7.68 44.16-19.84 12.8-13.44 18.56-28.16 19.84-44.16zM448 812.8c-200.96 0-364.8-162.56-364.8-363.52s163.84-364.8 364.8-364.8 364.8 163.2 364.8 364.8c0 201.6-163.84 364.16-364.8 364.16v-0.64zM448 897.28c247.040 0 448-200.96 448-448s-200.96-448-448-448-448 199.68-448 448 200.96 448 448 448z" />
<glyph unicode="&#xe95a;" glyph-name="issue-closed" data-tags="issue-closed" d="M448 320v-128h128v128h-128zM576 704v-320h-128v320h128zM672 608l96-96 192 224 64-64-256-288-160 160 64 64zM512 83.2v-0.64c167.68 0 308.48 113.92 350.72 268.16l97.28 97.28c0-247.040-200.96-448-448-448s-448 200.96-448 448c0 247.040 200.96 448 448 448h-0.060c0.387 0.001 0.773 0.001 1.16 0.001 139.287 0 263.615-64.050 345.78-165.121l-58.88-58.88c-67.2 84.48-170.88 140.8-288 140.8-200.96 0-364.8-163.84-364.8-364.8v-0.035c0.363-201.292 163.473-364.402 364.8-364.765z" />
<glyph unicode="&#xe95b;" glyph-name="issue-opened" data-tags="issue-opened" horiz-adv-x="896" d="M448 812.8c200.96 0 364.8-163.84 364.8-364.8s-163.84-364.8-364.8-364.8c-201.327 0.364-364.437 163.473-364.8 364.765v0.035c0 200.96 163.84 364.8 364.8 364.8zM448 896c-247.040 0-448-200.96-448-448s200.96-448 448-448 448 200.96 448 448-200.96 448-448 448zM512 704v-320h-128v320h128zM512 320v-128h-128v128h128z" />
<glyph unicode="&#xe95c;" glyph-name="issue-reopened" data-tags="issue-reopened" horiz-adv-x="896" d="M512 384v320h-128v-320h128zM384 192v128h128v-128h-128zM789.12 320h106.88v-256l-101.76 101.76c-81.92-100.48-206.080-165.76-346.24-165.76-247.040 0-448 200.96-448 448 0 21.76 1.92 42.88 5.12 64h83.84c-3.84-21.12-5.76-42.24-5.76-64v-0.035c0.363-201.292 163.473-364.402 364.8-364.765 117.12 0 220.8 55.68 288 140.8l-96 96h149.12zM106.88 576h-106.88v256l101.76-101.76c81.92 100.48 206.080 165.76 346.24 165.76 247.040 0 448-200.96 448-448 0-21.76-1.92-42.88-5.12-64h-83.84c3.84 21.12 5.76 42.24 5.76 64 0 200.96-163.84 364.8-364.8 364.8-117.12 0-220.8-55.68-288-140.8l96-96h-149.12z" />
<glyph unicode="&#xe95d;" glyph-name="italic" data-tags="italic" horiz-adv-x="384" d="M179.84 640l-115.84-576h128l114.56 576h-126.72zM202.88 812.8c0-41.6 35.2-65.92 72.32-65.92 47.36 0 85.12 35.2 85.12 83.2 0 41.6-36.48 65.92-72.32 65.92-48 0-85.12-38.4-85.12-83.2z" />
<glyph unicode="&#xe95e;" glyph-name="jersey" data-tags="jersey" horiz-adv-x="896" d="M288 576l-32-32v-320l32-32h128l32 32v320l-32 32h-128zM384 256h-64v256h64v-256zM785.28 720c-14.080 88.32-19.84 168.32-17.28 240h-190.72c0-17.28-8.32-30.72-24.96-44.16-16-12.8-40.32-19.2-72.32-19.2s-56.32 5.76-72.32 19.2c-14.72 12.8-23.040 26.88-23.040 44.16h-192.64c3.2-72.32-1.92-152.32-16-240-12.8-88.32-51.2-136.32-112-144v-576c1.28-17.28 7.040-30.72 19.84-44.16s26.88-19.2 44.16-19.84h704c17.28 1.28 30.72 7.040 44.16 19.84s19.2 26.88 19.84 44.16v576c-60.8 8.32-97.92 56.32-112 144h1.28zM832 0h-704v512c56.96 32 94.72 80 110.080 144s19.84 144 17.92 240h64c-1.28-49.92 10.24-94.080 33.28-131.84 23.040-37.12 65.28-56.96 128-60.16 62.72 1.28 104.96 21.12 128 60.16 23.040 37.76 32 81.92 30.72 131.84h64c1.28-90.88 8.32-163.2 21.12-216.32 12.8-51.84 44.16-128 106.88-168.32v-511.36zM544 576l-32-32v-320l32-32h128l32 32v320l-32 32h-128zM640 256h-64v256h64v-256z" />
<glyph unicode="&#xe95f;" glyph-name="kebab-horizontal" data-tags="kebab-horizontal" horiz-adv-x="832" d="M96 384v0c-53.019 0-96 42.981-96 96s42.981 96 96 96v0c53.019 0 96-42.981 96-96s-42.981-96-96-96zM416 384v0c-53.019 0-96 42.981-96 96s42.981 96 96 96v0c53.019 0 96-42.981 96-96s-42.981-96-96-96zM832 480v0c0 53.019-42.981 96-96 96s-96-42.981-96-96v0c0-53.019 42.981-96 96-96s96 42.981 96 96z" />
<glyph unicode="&#xe960;" glyph-name="kebab-vertical" data-tags="kebab-vertical" horiz-adv-x="192" d="M0 800v0c0 53.019 42.981 96 96 96s96-42.981 96-96v0c0-53.019-42.981-96-96-96s-96 42.981-96 96zM0 480v0c0 53.019 42.981 96 96 96s96-42.981 96-96v0c0-53.019-42.981-96-96-96s-96 42.981-96 96zM96 64v0c53.019 0 96 42.981 96 96s-42.981 96-96 96v0c-53.019 0-96-42.981-96-96s42.981-96 96-96z" />
<glyph unicode="&#xe961;" glyph-name="key" data-tags="key" horiz-adv-x="896" d="M821.12 821.12c-48 48-108.16 72.96-181.12 74.88-72.32-1.92-133.12-26.88-181.12-74.88s-72.32-108.16-74.24-181.12c0-19.2 1.92-37.76 5.76-56.96l-390.4-391.040v-64l64-64h128l64 64v64h64v64h64v64h128l69.76 71.040c19.2-5.12 37.76-7.040 58.24-7.040 72.96 1.92 133.12 26.88 181.12 74.88s72.96 108.16 74.88 181.12c-1.92 72.96-26.88 133.12-74.88 181.12zM704 615.68c-49.28 0-88.32 39.040-88.32 88.32s39.040 88.32 88.32 88.32c49.28 0 88.32-39.040 88.32-88.32s-39.040-88.32-88.32-88.32z" />
<glyph unicode="&#xe962;" glyph-name="keyboard" data-tags="keyboard" d="M640 640v64h-64v-64h64zM192 576v-64h-64v64h64zM512 704v-64h-64v64h64zM256 704v-64h-128v64h128zM768 256v64h128v-64h-128zM512 512v64h64v-64h-64zM256 320v-64h-128v64h128zM768 704v-64h-64v64h64zM896 704v-64h-64v64h64zM768 384v192h128v-192h-128zM1024 768v-576c0-35.2-28.8-64-64-64h-896c-35.2 0-64 28.8-64 64v576c0 35.2 28.8 64 64 64h896c35.2 0 64-28.8 64-64zM960 768h-896v-576h896v576zM384 512v64h64v-64h-64zM384 704v-64h-64v64h64zM256 512v64h64v-64h-64zM320 256v64h384v-64h-384zM640 512v64h64v-64h-64zM192 448v-64h-64v64h64zM512 448h64v-64h-64v64zM384 448h64v-64h-64v64zM320 448v-64h-64v64h64zM640 384v64h64v-64h-64z" />
<glyph unicode="&#xe963;" glyph-name="law" data-tags="law" horiz-adv-x="896" d="M448 704c53.12 0 96 42.88 96 96s-42.88 96-96 96c-53.12 0-96-42.88-96-96s42.88-96 96-96zM896 320c0-71.040-56.96-128-128-128h-64c-71.040 0-128 56.96-128 128l128 256h-64c-35.2 0-64 28.8-64 64h-64v-512c26.88 0 64-28.8 64-64h64c26.88 0 64-28.8 64-64h-512c0 35.2 37.12 64 64 64h64c0 35.2 37.12 64 64 64h1.92l-1.92 512h-64c0-35.2-28.8-64-64-64h-64l128-256c0-71.040-56.96-128-128-128h-64c-71.040 0-128 56.96-128 128l128 256h-64v64h192c0 35.2 28.8 64 64 64h256c35.2 0 64-28.8 64-64h192v-64h-64l128-256zM160 512l-96-192h192l-96 192zM832 320l-96 192-96-192h192z" />
<glyph unicode="&#xe964;" glyph-name="light-bulb" data-tags="light-bulb" horiz-adv-x="768" d="M416 960c-193.28 0-352-140.16-352-320 0-58.88 35.2-144 64-192 85.76-144 113.92-177.92 128-256v-64h320v64c14.080 78.080 42.24 112 128 256 28.8 48 64 133.12 64 192 0 179.84-158.72 320-352 320zM648.96 481.28c-16-28.16-30.080-51.2-42.88-71.040-55.040-90.24-80-131.84-92.8-206.72-1.28-3.2-1.28-7.040-1.28-10.88h-192c0 3.84 0 8.32-1.28 10.88-12.8 74.88-37.76 117.12-92.8 206.72-12.8 19.84-26.88 42.88-42.88 71.040-26.88 44.8-55.040 117.12-55.040 158.72 0 140.8 129.28 256 288 256 78.080 0 151.040-26.88 206.080-76.16 53.12-48 81.92-112 81.92-179.84 0-42.24-28.16-113.92-55.040-158.72zM256 64c14.72-72.96 83.2-128 160-128s145.28 55.040 160 128h-320z" />
<glyph unicode="&#xe965;" glyph-name="link" data-tags="link" d="M256 384c-64 0-128 78.080-128 160s65.28 160 128 160h256c62.72 0 128-78.080 128-160 0-52.48-26.88-104.96-64-133.76v-74.24c69.76 33.92 128 117.76 128 208 0 115.84-99.2 224-192 224h-256c-92.8 0-192-108.16-192-224s96-224 192-224h64v64h-64zM832 576c96 0 192-108.16 192-224s-99.2-224-192-224h-256c-92.8 0-192 108.16-192 224 0 90.24 58.24 174.080 128 208v-74.24c-37.12-28.8-64-80.64-64-133.76 0-81.92 65.28-160 128-160h256c62.72 0 128 78.080 128 160s-64 160-128 160h-64v64h64z" />
<glyph unicode="&#xe966;" glyph-name="link-external" data-tags="link-external" horiz-adv-x="768" d="M704 320v-192h-640v640h192v64h-192c-35.2 0-64-28.8-64-64v-640c0-35.2 28.8-64 64-64h640c35.2 0 64 28.8 64 64v192h-64zM384 832h384v-384l-144 144-208-208-96 96 208 208-144 144z" />
<glyph unicode="&#xe967;" glyph-name="list-ordered" data-tags="list-ordered" horiz-adv-x="832" d="M768.64 128h-0.64c0 37.76 0 64-37.76 64h-435.84c-37.76 0-37.76-26.24-37.76-64s0-64 37.76-64h436.48c37.76 0 37.76 26.24 37.76 64zM294.4 704c-37.76 0-37.76 26.24-37.76 64s0 64 37.76 64h435.84c37.76 0 37.76-26.24 37.76-64s0-64-37.76-64h-435.84zM730.24 512c37.76 0 37.76-26.24 37.76-64s0-64-37.76-64h-435.84c-37.76 0-37.76 26.24-37.76 64s0 64 37.76 64h435.84zM128.64 896v-200.96h64v-55.040h-181.76v55.040h53.76v136.96h-48v42.24c28.8 5.76 46.72 9.6 65.92 21.76h46.080zM153.728 376.32h38.272v-56.32h-192v37.12c59.52 55.040 108.8 97.92 108.8 131.84 0 23.040-12.8 33.28-30.72 33.28-16.64 0-28.8-12.16-40.96-24.32l-37.12 37.12c26.24 28.16 50.56 40.96 88.32 40.96 51.2 0 85.76-33.28 87.040-83.2 0-40.96-39.040-85.12-72.96-120.96 13.44 1.92 43.072 4.48 51.328 4.48zM139.52 133.76v0.64c29.44-8.32 49.28-28.16 49.28-60.16 0-48-44.8-74.24-97.92-74.24-40.96 0-71.040 12.8-90.24 35.84l30.72 42.24c16-15.36 33.92-24.32 51.84-24.32 22.4 0 37.12 8.32 37.12 24.32 0 19.2-9.6 30.080-62.72 30.080v48c42.24 0 55.040 10.88 55.040 28.16 0 14.72-9.6 23.040-26.88 23.040-16 0-28.16-7.040-44.16-19.84l-35.2 40.96c24.96 21.12 51.2 33.28 81.92 33.28 56.32 0 92.16-26.24 92.16-71.040 0-24.96-12.8-42.88-40.96-55.040v-1.92z" />
<glyph unicode="&#xe968;" glyph-name="list-unordered" data-tags="list-unordered" horiz-adv-x="768" d="M128 128h-0.64c0 37.76 0 64-37.76 64h-51.84c-37.76 0-37.76-26.24-37.76-64s0-64 37.76-64h52.48c37.76 0 37.76 26.24 37.76 64zM293.76 704c-37.76 0-37.76 26.24-37.76 64s0 64 37.76 64h435.84c37.76 0 37.76-26.24 37.76-64s0-64-37.76-64h-435.84zM90.24 512h-0.64c37.76 0 37.76-26.24 37.76-64s0-64-37.76-64h-51.84c-37.76 0-37.76 26.24-37.76 64s0 64 37.76 64h52.48zM90.24 832h-0.64c37.76 0 37.76-26.24 37.76-64s0-64-37.76-64h-51.84c-37.76 0-37.76 26.24-37.76 64s0 64 37.76 64h52.48zM730.24 512h-0.64c37.76 0 37.76-26.24 37.76-64s0-64-37.76-64h-435.84c-37.76 0-37.76 26.24-37.76 64s0 64 37.76 64h436.48zM730.24 192h-0.64c37.76 0 37.76-26.24 37.76-64s0-64-37.76-64h-435.84c-37.76 0-37.76 26.24-37.76 64s0 64 37.76 64h436.48z" />
<glyph unicode="&#xe969;" glyph-name="location" data-tags="location" horiz-adv-x="768" d="M384 960c-211.84 0-384-160-384-352 0-289.28 384-672 384-672s384 382.72 384 672c0 192-172.16 352-384 352zM384 28.8c-119.040 129.92-320 391.040-320 579.2 0 158.72 144 288 320 288 85.76 0 167.040-30.72 227.84-87.040 58.88-55.040 92.16-126.080 92.16-200.96 0-188.16-200.96-449.28-320-579.2zM512 608c0 71.040-56.96 128-128 128s-128-56.96-128-128c0-71.040 56.96-128 128-128s128 56.96 128 128z" />
<glyph unicode="&#xe96a;" glyph-name="lock" data-tags="lock" horiz-adv-x="768" d="M256 128v64h-64v-64h64zM768 512v-448c0-35.2-28.8-64-64-64h-640c-35.2 0-64 28.8-64 64v448c0 35.2 28.8 64 64 64h64v128c0 140.8 115.2 256 256 256s256-115.2 256-256v-128h64c35.2 0 64-28.8 64-64zM243.2 576h282.24v128c0 78.080-62.72 140.8-140.8 140.8s-140.8-62.72-140.8-140.8v-128h-0.64zM704 512h-576v-448h576v448zM256 448v-64h-64v64h64zM256 320v-64h-64v64h64z" />
<glyph unicode="&#xe96b;" glyph-name="mail" data-tags="mail" horiz-adv-x="896" d="M0 704v-512c0-35.2 28.8-64 64-64h768c35.2 0 64 28.8 64 64v512c0 35.2-28.8 64-64 64h-768c-35.2 0-64-28.8-64-64zM832 704l-384-320-384 320h768zM64 608l256-192-256-192v384zM128 192l224 192 96-96 96 96 224-192h-640zM832 224l-256 192 256 192v-384z" />
<glyph unicode="&#xe96c;" glyph-name="mail-read" data-tags="mail-read" horiz-adv-x="896" d="M384 640v64h-128v-64h128zM576 576v-64h-320v64h320zM896 606.72v-542.72c0-35.2-28.8-64-64-64h-768c-35.2 0-64 28.8-64 64v542.72c0 21.12 10.24 40.32 26.88 51.84l101.12 72.32v37.12c0 35.2 28.8 64 64 64h76.8l179.2 128 179.2-128h76.8c35.2 0 64-28.8 64-64v-37.12l101.12-72.32c17.28-12.16 26.88-30.72 26.88-51.84zM192 480l256-160 256 160v288h-512v-288zM64 96l288 192-288 192v-384zM768 64l-320 192-320-192h640zM832 480l-288-192 288-192v384z" />
<glyph unicode="&#xe96d;" glyph-name="markdown" data-tags="markdown" d="M950.4 768h-876.8c-40.32 0-73.6-33.28-73.6-73.6v-492.16c0-40.96 33.28-74.24 73.6-74.24h876.16c40.96 0 73.6 33.28 73.6 73.6v492.8c0.64 40.32-32.64 73.6-72.96 73.6zM576 256h-128v192l-96-122.88-96 122.88v-192h-128v384h128l96-128 96 128h128v-384zM767.36 224l-159.36 224h96v192h128v-192h96l-160.64-224z" />
<glyph unicode="&#xe96e;" glyph-name="megaphone" data-tags="megaphone" d="M640 896c-10.88 0-23.040-3.2-33.28-8.96-92.16-56.32-318.72-220.16-414.72-247.040-88.32 0-192-42.88-192-160s104.32-160 192-160c19.2-5.12 40.96-14.72 64-26.24v-293.76h128v220.8c85.76-55.040 172.16-117.12 222.72-147.84 10.24-5.76 21.76-8.96 33.28-8.96 33.28 0 64 26.88 64 64v704c0 37.12-30.72 64-64 64zM640 128c-24.32 14.72-56.96 37.12-96 64-10.24 7.040-21.12 14.080-32 21.76v534.4c10.24 7.040 19.84 12.8 30.080 19.84 39.040 26.24 74.24 49.28 97.92 64v-704zM768 512v-64h256v64h-256zM768 384v-64l256-128v64l-256 128zM1024 768l-256-128v-64l256 128v64z" />
<glyph unicode="&#xe96f;" glyph-name="mention" data-tags="mention" horiz-adv-x="896" d="M421.12 0c80 0 161.28 19.84 227.84 60.16l-26.88 60.16c-53.76-33.28-120.96-53.12-193.92-53.12-206.72 0-360.96 133.12-360.96 366.080 0 279.68 206.72 459.52 421.12 459.52 220.8 0 334.080-140.16 334.080-332.8 0-152.96-85.76-247.040-160-247.040-67.2 0-87.040 46.72-67.2 140.16l46.72 240h-67.2l-7.040-46.080c-26.24 40.32-60.16 53.12-99.84 53.12-140.16 0-234.24-152.96-234.24-280.32 0-106.88 60.16-167.040 147.2-167.040 53.76 0 106.88 33.92 147.2 80 7.040-60.16 60.16-92.8 126.72-92.8 106.88 0 241.28 106.88 241.28 320 0 232.96-154.24 400-394.88 400-266.88 0-501.12-213.12-501.12-533.12 0-280.32 186.88-426.88 421.12-426.88zM401.28 320c-46.72 0-87.040 33.28-87.040 106.88 0 92.8 60.16 206.080 154.24 206.080 33.28 0 53.76-12.8 80-53.12l-33.28-193.28c-40.32-46.72-80-67.2-113.92-67.2v0.64z" />
<glyph unicode="&#xe970;" glyph-name="milestone" data-tags="milestone" horiz-adv-x="896" d="M512 832v128h-128v-128h128zM768 512h-640c-35.2 0-64 28.8-64 64v128c0 35.2 28.8 64 64 64h640l128-128-128-128zM512 704h-128v-128h128v128zM384-64v512h128v-512h-128z" />
<glyph unicode="&#xe971;" glyph-name="mirror" data-tags="mirror" d="M992 659.2l-448 300.8-448-300.8c-19.2-12.16-32-28.8-32-51.2v-672l480 256 480-256v672c0 21.76-12.8 39.040-32 51.2zM960 32l-384 208v80h-64v-80l-384-208v576l384 256v-288h64v288l384-256v-576zM384 512v128l-192-192 192-192v128h320v-128l192 192-192 192v-128h-320z" />
<glyph unicode="&#xe972;" glyph-name="mortar-board" data-tags="mortar-board" d="M519.040 780.8l-0.64-0.64 488.479-153.002c9.126-2.831 15.754-11.341 15.754-21.398s-6.628-18.566-15.913-21.44l-488.96-152.32c-3.84-1.28-8.96-1.28-12.8 0l-312.96 97.92v-92.8c19.2-10.88 32-30.72 32-55.040 0-12.16-3.84-23.040-8.96-32 5.76-8.96 8.96-19.84 8.96-32v-165.12c0-35.2-128-35.2-128 0v165.12c0 12.16 3.84 23.040 8.96 32-5.76 8.96-8.96 19.84-8.96 32 0 23.040 12.8 44.16 32 55.040v113.28l-110.879 35.242c-9.126 2.831-15.754 11.341-15.754 21.398s6.628 18.566 15.913 21.44l488.806 152.278c2.068 0.653 4.27 1.004 6.554 1.004s4.486-0.352 6.4-0.962zM256 448v-160c0-64 115.2-96 256-96s256 32 256 96v160l-245.12-76.16c-7.040-1.92-14.72-1.92-23.040 0h1.28l-245.12 76.16zM449.28 608c0-17.92 28.8-32 64-32s64 14.080 64 32-28.8 32-64 32-64-14.080-64-32z" />
<glyph unicode="&#xe973;" glyph-name="mute" data-tags="mute" d="M512 780.16c0 42.88-51.84 64-81.92 33.92l-238.080-238.080h-128c-35.2 0-64-28.8-64-64v-128c0-35.2 28.8-64 64-64h128l238.080-238.080c30.080-30.080 81.92-8.96 81.92 33.92v664.32zM993.92 574.080l-126.080-126.080 126.080-126.080-67.84-67.84-126.080 126.080-126.080-126.080-67.84 67.84 126.080 126.080-126.080 126.080 67.84 67.84 126.080-126.080 126.080 126.080 67.84-67.84z" />
<glyph unicode="&#xe974;" glyph-name="no-newline" data-tags="no-newline" d="M1024 640h-128v-128h-128v128l-192-192 192-192v128h192c35.2 0 64 28.8 64 64v192zM512 448c0-140.8-115.2-256-256-256s-256 115.2-256 256 115.2 256 256 256 256-115.2 256-256zM96 341.76l266.24 266.24c-30.72 19.84-67.2 32-106.24 32-106.24 0-192-85.76-192-192 0-39.040 12.16-74.88 32-106.24zM448 448c0 39.040-12.16 74.88-32 106.24l-266.24-266.24c30.72-19.84 67.2-32 106.24-32 106.24 0 192 85.76 192 192z" />
<glyph unicode="&#xe975;" glyph-name="note" data-tags="note" horiz-adv-x="896" d="M192 320v64h256v-64h-256zM192 448v64h384v-64h-384zM192 576v64h512v-64h-512zM832 192h-768v576h768v-576zM64 832c-35.2 0-64-28.8-64-64v-576c0-35.2 28.8-64 64-64h768c35.2 0 64 28.8 64 64v576c0 35.2-28.8 64-64 64h-768z" />
<glyph unicode="&#xe976;" glyph-name="organization" data-tags="organization" d="M1024 128.064c0-28.096-28.8-64-64-64h-448.32c-34.496 0-63.616 28.608-63.68 63.936h-384c-34.56 0-64 35.904-64 64 0 168.576 192 256 192 256s14.656 26.176 0 64c-53.824 39.744-67.712 37.76-64 192 3.712 154.816 87.488 192 160 192s156.288-37.12 160-192c3.712-154.24-10.176-152.256-64-192-14.656-37.76 0-64 0-64s99.136-45.504 154.88-133.632c49.664 46.016 101.12 69.696 101.12 69.696s14.656 26.176 0 64c-53.824 39.68-67.712 37.76-64 192 3.712 154.816 87.488 192 160 192s155.968-37.184 159.68-192c3.776-154.24-10.112-152.32-64-192-14.656-37.76 0-64 0-64s192.32-87.424 192.32-256z" />
<glyph unicode="&#xe977;" glyph-name="package" data-tags="package" d="M64 686.72v-478.080c0-28.8 19.2-53.76 48-62.080l416-110.72c10.24-3.2 21.76-3.2 32 0l416 110.72c28.8 8.32 48 33.28 48 62.080v478.080c0 28.8-19.2 53.76-48 62.080l-416 111.36c-4.811 0.916-10.344 1.44-16 1.44s-11.189-0.524-16.554-1.526l0.554 0.086-416-111.36c-28.8-8.32-48-33.28-48-62.080zM512 104.96l-384 101.76v433.28l384-103.040v-432zM128 704l160 42.88 416-110.72-160-42.88-416 110.72zM960 206.72l-384-101.76v432l128 35.2v-156.16l128 33.92v156.16l128 33.92v-433.28zM832 670.080l-416 110.72 128 33.92 416-110.72-128-33.92z" />
<glyph unicode="&#xe978;" glyph-name="paintcan" data-tags="paintcan" horiz-adv-x="768" d="M384 960c-211.84 0-384-172.16-384-384v-64c0-35.2 28.8-64 64-64v-320c0-70.4 143.36-128 320-128s320 57.6 320 128v320c35.2 0 64 28.8 64 64v64c0 211.84-172.16 384-384 384zM576 320v-32c0-17.92-14.080-32-32-32s-32 14.080-32 32v32c0 17.92-14.080 32-32 32s-32-14.080-32-32v-160c0-17.92-14.080-32-32-32s-32 14.080-32 32v128c0 17.92-14.080 32-32 32s-32-14.080-32-32v-32c0-35.2-28.8-64-64-64s-64 28.8-64 64v64c-35.2 0-64 28.8-64 64v115.2c58.24-31.36 151.040-51.2 256-51.2s197.76 19.84 256 51.2v-115.2c0-35.2-28.8-64-64-64zM384 512c-107.52 0-199.68 26.24-237.44 64 37.76 37.76 129.92 64 237.44 64s199.68-26.24 237.44-64c-37.76-37.76-129.92-64-237.44-64zM384 704c-176.64 0-320-56.96-320-128 0 176.64 143.36 320 320 320s320-143.36 320-320c0 70.4-143.36 128-320 128z" />
<glyph unicode="&#xe979;" glyph-name="pencil" data-tags="pencil" horiz-adv-x="896" d="M0 192v-192h192l512 512-192 192-512-512zM192 64h-128v128h64v-64h64v-64zM851.2 659.2c24.96 24.96 24.96 65.28 0 90.24l-101.761 101.761c-11.539 11.562-27.494 18.715-45.119 18.715s-33.58-7.153-45.12-18.716l-83.2-83.2 192-192 83.2 83.2z" />
<glyph unicode="&#xe97a;" glyph-name="person" data-tags="person" horiz-adv-x="768" d="M768 63.872c0-35.276-28.596-63.872-63.872-63.872v0h-640.064c-0.019 0-0.042 0-0.064 0-35.346 0-64 28.654-64 64 0 0.023 0 0.045 0 0.068v-0.003 63.936c0 168.512 256 256 256 256s14.656 26.176 0 64c-53.824 39.68-60.416 101.76-64 256 11.072 154.432 119.488 192 192 192s180.928-37.504 192-192c-3.584-154.24-10.176-216.32-64-256-14.656-37.76 0-64 0-64s256-87.488 256-256v-64.128z" />
<glyph unicode="&#xe97b;" glyph-name="pin" data-tags="pin" d="M640 883.2v-51.2l32-64-288-192h-243.2c-28.16 0-42.88-33.92-21.76-55.040l200.96-200.96-256-320 320 256 200.96-200.96c5.829-6.043 13.998-9.796 23.043-9.796 17.517 0 31.747 14.075 31.997 31.533v243.224l192 288 64-32h51.2c28.16 0 42.88 33.92 21.76 55.040l-273.92 273.92c-5.829 6.043-13.998 9.796-23.043 9.796-17.517 0-31.747-14.075-31.997-31.533v-0.024z" />
<glyph unicode="&#xe97c;" glyph-name="plug" data-tags="plug" horiz-adv-x="896" d="M896 576v64h-256v128h-128v-64h-128c-65.92 0-113.28-51.84-128-128l-64-64c-106.24 0-192-85.76-192-192v-128h64v128c0 71.040 56.96 128 128 128l64-64c16-74.24 62.72-128 128-128h128v-64h128v128h256v64h-256v192h256z" />
<glyph unicode="&#xe97d;" glyph-name="plus" data-tags="plus" horiz-adv-x="768" d="M768 384h-320v-320h-128v320h-320v128h320v320h128v-320h320v-128z" />
<glyph unicode="&#xe97e;" glyph-name="plus-small" data-tags="plus-small" horiz-adv-x="448" d="M256 704h-64v-192h-192v-64h192v-192h64v192h192v64h-192v192z" />
<glyph unicode="&#xe97f;" glyph-name="primitive-dot" data-tags="primitive-dot" horiz-adv-x="512" d="M0 448c0 140.8 115.2 256 256 256s256-115.2 256-256-115.2-256-256-256-256 115.2-256 256z" />
<glyph unicode="&#xe980;" glyph-name="primitive-square" data-tags="primitive-square" horiz-adv-x="512" d="M512 192h-512v512h512v-512z" />
<glyph unicode="&#xe981;" glyph-name="project" data-tags="project" horiz-adv-x="960" d="M640 192v640h192v-640h-192zM384 320v512h192v-512h-192zM128 64v768h192v-768h-192zM64 0v896h832v-896h-832zM896 960h-832c-35.346 0-64-28.654-64-64v0-896c0-35.346 28.654-64 64-64v0h832c35.346 0 64 28.654 64 64v0 896c0 35.346-28.654 64-64 64v0z" />
<glyph unicode="&#xe982;" glyph-name="pulse" data-tags="pulse" horiz-adv-x="896" d="M736 448l-172.8 166.4-140.8-198.4-70.4 441.6-199.68-409.6h-152.32v-128h230.4l57.6 115.2 57.6-345.6 230.4 326.4 102.4-96h217.6v128h-160z" />
<glyph unicode="&#xe983;" glyph-name="question" data-tags="question" horiz-adv-x="896" d="M384 320v-128h128v128h-128zM640 544c0 96-96 160-192 160s-192-96-192-192h128v32c0 17.92 14.080 32 32 32h64c17.92 0 32-14.080 32-32v-64c0-17.92-14.080-32-32-32h-32c-35.2 0-64-28.8-64-64h128c0 0 128 23.040 128 160zM448 812.8c200.96 0 364.8-163.84 364.8-364.8s-163.84-364.8-364.8-364.8c-201.327 0.364-364.437 163.473-364.8 364.765v0.035c0 200.96 163.84 364.8 364.8 364.8zM448 896c-247.040 0-448-200.96-448-448s200.96-448 448-448 448 200.96 448 448-200.96 448-448 448z" />
<glyph unicode="&#xe984;" glyph-name="quote" data-tags="quote" horiz-adv-x="896" d="M394.24 736l-72.96 117.76c-209.28-120.96-321.28-295.68-321.28-538.88 0-174.72 69.76-272 191.36-272 94.080 0 160 64 160 167.040 0 99.2-78.72 154.24-160 154.24-8.96 0-17.92 0-28.16-3.2 0 172.16 75.52 275.2 231.040 375.040zM842.24 736h0.64l-72.96 117.76c-209.28-120.96-321.28-295.68-321.28-538.88 0-174.72 69.76-272 190.72-272 94.080 0 160 64 160 167.040 0 99.2-78.72 154.24-160 154.24-8.96 0-17.92 0-28.16-3.2 0 172.16 75.52 275.2 231.040 375.040z" />
<glyph unicode="&#xe985;" glyph-name="radio-tower" data-tags="radio-tower" d="M306.56 568.96c-15.36-16-41.6-16-57.6 0-35.84 37.12-54.4 86.4-54.4 135.040s17.92 97.92 54.4 135.040c7.68 8.32 18.56 12.16 28.8 12.16h-0.022c0.141 0.002 0.283 0.002 0.425 0.002 11.163 0 21.238-4.663 28.397-12.162 16-16 16-42.24 0-58.88-20.48-21.12-30.72-48.64-30.72-76.16s10.24-55.040 30.72-76.16c16-16 16-42.88 0-58.88zM149.12 926.72l-0.009 0.010c7.4-7.608 11.957-17.996 11.957-29.447 0-11.771-4.815-22.418-12.587-30.082-43.52-44.8-65.28-103.68-65.28-162.56s21.76-117.76 65.28-162.56c16-16.64 16-43.52 0-60.16s-42.24-16.64-58.24 0c-59.52 61.44-89.6 142.080-89.6 222.72 0 80 30.080 160.64 89.6 222.080v0c7.538 7.528 17.946 12.183 29.44 12.183s21.902-4.655 29.44-12.182zM513.28 600.32c-57.6 0-104.32 46.72-103.68 103.68v0c0 57.261 46.419 103.68 103.68 103.68s103.68-46.419 103.68-103.68c0-57.261-46.419-103.68-103.68-103.68zM933.76 926.080l-0.097 0.101c55.656-57.792 89.989-136.264 90.337-222.821 0-80.64-30.080-161.28-89.6-222.72v0c-7.538-7.528-17.946-12.183-29.44-12.183s-21.902 4.655-29.44 12.182c-16 16.64-16 43.52 0 60.16 43.52 45.44 65.28 103.68 65.28 162.56s-21.76 117.76-65.28 162.56c-16 16.64-16 43.52 0 60.16l0.015 0.016c7.321 7.684 17.653 12.473 29.105 12.473s21.784-4.789 29.12-12.49zM513.28 517.12c-26.24 0-53.12 6.4-76.8 19.2l-201.6-535.68h95.36l55.040 64h256l53.76-64h95.36l-200.96 535.68c-24.32-12.8-49.92-19.2-76.16-19.2zM512.64 486.4l64.64-230.4h-128l63.36 230.4zM385.28 128.64l64 64h128l64-64h-256zM717.44 839.040l0.002 0.002c7.351 7.405 17.539 11.991 28.798 11.991s21.447-4.586 28.8-11.993c36.48-37.12 54.4-86.4 54.4-135.040s-17.92-97.92-54.4-135.040l-0.006-0.007c-7.318-7.464-17.515-12.095-28.794-12.095s-21.476 4.631-28.8 12.102c-16 16-16 42.24 0 58.88 20.48 21.12 30.72 48.64 30.72 76.16s-10.24 55.040-30.72 76.16c-16 16-16 42.88 0 58.88z" />
<glyph unicode="&#xe986;" glyph-name="reply" data-tags="reply" horiz-adv-x="896" d="M384 736c250.88-28.16 512-200 512-640-147.968 323.968-304 384-512 384v-224l-352 352 352 352v-224z" />
<glyph unicode="&#xe987;" glyph-name="repo" data-tags="repo" horiz-adv-x="768" d="M256 384v64h-64v-64h64zM256 576v-64h-64v64h64zM256 704v-64h-64v64h64zM256 832v-64h-64v64h64zM768 896v-768c0-35.2-28.8-64-64-64h-320v-128l-96 96-96-96v128h-128c-35.2 0-64 28.8-64 64v768c0 35.2 28.8 64 64 64h640c35.2 0 64-28.8 64-64zM704 256h-640v-128h128v64h192v-64h320v128zM704 896h-576v-576h576v576z" />
<glyph unicode="&#xe988;" glyph-name="repo-clone" data-tags="repo-clone" d="M960 960h-384v-448c0-35.2 28.8-64 64-64h64v-64h64v64h192c35.2 0 64 28.8 64 64v384c0 35.2-28.8 64-64 64zM704 512h-64v64h64v-64zM960 512h-192v64h192v-64zM960 640h-256v256h256v-256zM256 640v64h-64v-64h64zM256 768v64h-64v-64h64zM128 896h384v64h-448c-35.2 0-64-28.8-64-64v-768c0-35.2 28.8-64 64-64h128v-128l96 96 96-96v128h320c35.2 0 64 28.8 64 64v192h-640v576zM704 256v-128h-320v64h-192v-64h-128v128h640zM192 448v-64h64v64h-64zM256 512v64h-64v-64h64z" />
<glyph unicode="&#xe989;" glyph-name="repo-force-push" data-tags="repo-force-push" horiz-adv-x="768" d="M640 384l-144 192h144l-192 256-192-256h144l-144-192h128v-448h128v448h128zM704 960c35.2 0 64-28.8 64-64v-768c0-35.2-28.8-64-64-64h-128v64h128v128h-128v64h128v576h-576v-576h192v-64h-256v-128h256v-64h-256c-35.2 0-64 28.8-64 64v768c0 35.2 28.8 64 64 64h640z" />
<glyph unicode="&#xe98a;" glyph-name="repo-forked" data-tags="repo-forked" horiz-adv-x="640" d="M512 896c-0.1 0-0.219 0-0.337 0-70.445 0-127.552-57.107-127.552-127.552 0-47.009 25.43-88.079 63.285-110.202l0.604-0.326v-81.92l-128-128-128 128v81.92c38.459 22.45 63.889 63.519 63.889 110.528 0 70.445-57.107 127.552-127.552 127.552-0.119 0-0.237 0-0.355 0h0.018c-0.1 0-0.219 0-0.337 0-70.445 0-127.552-57.107-127.552-127.552 0-47.009 25.43-88.079 63.285-110.202l0.604-0.326v-113.92l192-192v-113.92c-38.459-22.45-63.889-63.519-63.889-110.528 0-70.445 57.107-127.552 127.552-127.552 0.119 0 0.237 0 0.355 0h-0.018c0.1 0 0.219 0 0.337 0 70.445 0 127.552 57.107 127.552 127.552 0 47.009-25.43 88.079-63.285 110.202l-0.604 0.326v113.92l192 192v113.92c38.459 22.45 63.889 63.519 63.889 110.528 0 70.445-57.107 127.552-127.552 127.552-0.119 0-0.237 0-0.355 0h0.018zM128 691.2c-42.24 0-76.8 35.2-76.8 76.8s35.2 76.8 76.8 76.8c41.6 0 76.8-35.2 76.8-76.8s-35.2-76.8-76.8-76.8zM320 51.2c-42.24 0-76.8 35.2-76.8 76.8s35.2 76.8 76.8 76.8c41.6 0 76.8-35.2 76.8-76.8s-35.2-76.8-76.8-76.8zM512 691.2c-42.24 0-76.8 35.2-76.8 76.8s35.2 76.8 76.8 76.8c41.6 0 76.8-35.2 76.8-76.8s-35.2-76.8-76.8-76.8z" />
<glyph unicode="&#xe98b;" glyph-name="repo-pull" data-tags="repo-pull" d="M832 448l192 192-192 192v-128h-384v-128h384v-128zM256 832v-64h-64v64h64zM704 512h64v-384c0-35.2-28.8-64-64-64h-320v-128l-96 96-96-96v128h-128c-35.2 0-64 28.8-64 64v768c0 35.2 28.8 64 64 64h640c35.2 0 64-28.8 64-64v-128h-64v128h-576v-576h576v192zM704 256h-640v-128h128v64h192v-64h320v128zM256 576v-64h-64v64h64zM256 704v-64h-64v64h64zM192 384v64h64v-64h-64z" />
<glyph unicode="&#xe98c;" glyph-name="repo-push" data-tags="repo-push" horiz-adv-x="768" d="M256 768v64h-64v-64h64zM192 640v64h64v-64h-64zM448 640l192-256h-128v-448h-128v448h-128l192 256zM704 960c35.2 0 64-28.8 64-64v-768c0-35.2-28.8-64-64-64h-128v64h128v128h-128v64h128l1.28 576h-577.28v-576h192v-64h-256v-128h256v-64h-256c-35.2 0-64 28.8-64 64v768c0 35.2 28.8 64 64 64h640z" />
<glyph unicode="&#xe98d;" glyph-name="report" data-tags="report" d="M0 832v-576c0-35.346 28.654-64 64-64h128v-256l256 256h512c35.346 0 64 28.654 64 64v576c0 35.346-28.654 64-64 64h-896c-35.346 0-64-28.654-64-64zM64 832h896v-576h-544l-160-160v160h-192v576zM448 448v-128h128v128h-128zM448 768v-256h128v256h-128z" />
<glyph unicode="&#xe98e;" glyph-name="rocket" data-tags="rocket" d="M778.88 714.88l0.016-0.016c15.713-15.859 33.857-29.305 55.024-40.304 21.12-9.6 42.88-16.64 65.92-21.76-21.12-35.84-44.8-72.96-72.96-110.080-26.88-36.48-58.88-73.6-94.080-108.8-44.8-44.16-115.84-85.12-156.8-113.92v-192l-192-192v192l128 128c-49.28-23.040-190.72-65.28-192-64l-64 64c-1.28 1.28 42.24 142.72 64 192l-128-128h-192l192 192.64h192c28.8 40.96 69.12 112 113.92 156.8 35.2 34.56 71.040 66.56 108.16 94.72 36.48 27.52 73.6 51.2 110.72 72.32 4.48-23.040 11.52-45.44 21.76-65.28 10.24-21.12 23.040-39.040 40.32-56.32zM1024 960s-5.76-24.32-19.2-67.84c-12.8-44.8-35.2-101.12-67.84-170.24-44.8 5.12-81.28 21.12-106.24 46.080s-40.32 60.16-44.8 104.96c69.12 33.28 124.8 56.32 168.96 69.12 44.8 12.8 69.12 17.92 69.12 17.92z" />
<glyph unicode="&#xe98f;" glyph-name="rss" data-tags="rss" horiz-adv-x="640" d="M128 128c0 71.040-56.96 128-128 128v-128h128zM0 768c353.28 0 640-286.72 640-640h-64c0 318.116-257.884 576-576 576v64zM0 512c211.84 0 384-172.16 384-384h-64c0 176-144 320-320 320v64z" />
<glyph unicode="&#xe990;" glyph-name="ruby" data-tags="ruby" d="M832 576l-320-320v448h192l128-128zM1024 576l-512-512-512 512 256 256h512l256-256zM512 160l416 416-192 192h-448l-192-192 416-416z" />
<glyph unicode="&#xe991;" glyph-name="screen-full" data-tags="screen-full" horiz-adv-x="896" d="M832 320v-192h-192v-64h192c35.008 0 64 28.992 64 64v192h-64zM64 320v-192h192v-64h-192c-35.008 0-64 28.992-64 64v192h64zM64 768v-192h-64v192c0 35.008 28.992 64 64 64h192v-64h-192zM128 704h640v-512h-640v512zM256 320h384v256h-384v-256zM640 832h192c35.008 0 64-28.992 64-64v-192h-64v192h-192v64z" />
<glyph unicode="&#xe992;" glyph-name="screen-normal" data-tags="screen-normal" horiz-adv-x="896" d="M128 704c35.008 0 64 28.992 64 64v128h-64v-128h-128v-64h128zM128 192c35.008 0 64-28.992 64-64v-128h-64v128h-128v64h128zM704 320c0-35.008-28.992-64-64-64h-384c-35.008 0-64 28.992-64 64v256c0 35.008 28.992 64 64 64h384c35.008 0 64-28.992 64-64v-256zM576 512h-256v-128h256v128zM704 128c0 35.008 28.992 64 64 64h128v-64h-128v-128h-64v128zM768 768h128v-64h-128c-35.008 0-64 28.992-64 64v128h64v-128z" />
<glyph unicode="&#xe993;" glyph-name="search" data-tags="search" d="M1004.8 108.8l-243.84 245.12c44.413 61.348 71.041 138.104 71.041 221.080 0 0.352 0 0.703-0.001 1.055v-0.055c0 211.84-172.16 384-384 384s-384-172.16-384-384 172.16-384 384-384c83.2 0 158.72 26.24 222.080 71.040l245.12-243.84c12.16-12.8 28.8-19.2 44.8-19.2s33.28 5.76 44.8 19.2c11.563 11.54 18.716 27.495 18.716 45.12s-7.153 33.58-18.715 45.119l-0.001 0.001v-0.64zM448 275.2c-165.76 0-300.8 135.040-300.8 300.8s135.040 300.8 300.8 300.8c165.76 0 300.8-135.040 300.8-300.8s-135.040-300.8-300.8-300.8z" />
<glyph unicode="&#xe994;" glyph-name="server" data-tags="server" horiz-adv-x="768" d="M704 576h-640c-35.2 0-64-28.8-64-64v-128c0-35.2 28.8-64 64-64h640c35.2 0 64 28.8 64 64v128c0 35.2-28.8 64-64 64zM128 384h-64v128h64v-128zM256 384h-64v128h64v-128zM384 384h-64v128h64v-128zM512 384h-64v128h64v-128zM704 896h-640c-35.2 0-64-28.8-64-64v-128c0-35.2 28.8-64 64-64h640c35.2 0 64 28.8 64 64v128c0 35.2-28.8 64-64 64zM128 704h-64v128h64v-128zM256 704h-64v128h64v-128zM384 704h-64v128h64v-128zM512 704h-64v128h64v-128zM704 768h-64v64h64v-64zM704 256h-640c-35.2 0-64-28.8-64-64v-128c0-35.2 28.8-64 64-64h640c35.2 0 64 28.8 64 64v128c0 35.2-28.8 64-64 64zM128 64h-64v128h64v-128zM256 64h-64v128h64v-128zM384 64h-64v128h64v-128zM512 64h-64v128h64v-128z" />
<glyph unicode="&#xe995;" glyph-name="settings" data-tags="settings" d="M256 512v320h-64v-320h64zM192 64v192h64v-192h-64zM512 64v384h64v-384h-64zM832 64v128h64v-128h-64zM896 832v-384h-64v384h64zM576 832v-128h-64v128h64zM320 448c35.2 0 64-28.8 64-64s-28.8-64-64-64h-192c-35.2 0-64 28.8-64 64s28.8 64 64 64h192zM640 640c35.2 0 64-28.8 64-64s-28.8-64-64-64h-192c-35.2 0-64 28.8-64 64s28.8 64 64 64h192zM960 384c35.2 0 64-28.8 64-64s-28.8-64-64-64h-192c-35.2 0-64 28.8-64 64s28.8 64 64 64h192z" />
<glyph unicode="&#xe996;" glyph-name="shield" data-tags="shield" horiz-adv-x="896" d="M448 960l-448-128v-385.28c0-298.88 339.84-510.72 448-510.72s448 211.84 448 510.72v385.28l-448 128zM320 256l72.96 179.2c0.454 2.155 0.714 4.632 0.714 7.169 0 12.782-6.597 24.024-16.573 30.505l-0.141 0.086c-35.84 23.040-56.96 60.8-56.96 103.040 0 69.76 56.96 128 126.72 128 69.12 0 129.28-58.24 129.28-128 0-42.24-21.12-80-56.96-103.040-12.16-8.32-19.2-23.040-16-37.76l72.96-179.2h-256z" />
<glyph unicode="&#xe997;" glyph-name="sign-in" data-tags="sign-in" horiz-adv-x="896" d="M448 528v-336h256v256h64v-256c0-35.2-28.8-64-64-64h-256v-192l-348.8 174.080c-21.12 10.88-35.2 33.28-35.2 58.24v727.68c0 35.2 28.8 64 64 64h576c35.2 0 64-28.8 64-64v-192h-64v192h-512l256-128v-144l192 144v-128h256v-128h-256v-128l-192 144z" />
<glyph unicode="&#xe998;" glyph-name="sign-out" data-tags="sign-out" horiz-adv-x="964" d="M722.824 417.882l240.941 180.706-240.941 180.706v-120.471h-240.941v-120.471h240.941v-120.471zM602.353 237.176v240.941h60.235v-240.941c0-33.129-27.106-60.235-60.235-60.235h-240.941v-181.308l-328.282 163.84c-19.878 10.842-33.129 31.322-33.129 54.814v685.478c0 33.129 27.106 60.235 60.235 60.235h542.118c33.129 0 60.235-27.106 60.235-60.235v-180.706h-60.235v180.706h-481.882l240.941-120.471v-542.118h240.941z" />
<glyph unicode="&#xe999;" glyph-name="smiley" data-tags="smiley" d="M512 960c-282.88 0-512-229.12-512-512s229.12-512 512-512 512 229.12 512 512-229.12 512-512 512zM819.84 140.16c-38.76-38.692-84.873-70.031-136.062-91.738l-2.818-1.062c-53.12-23.040-110.080-33.92-168.96-33.92s-115.84 10.88-168.96 33.92c-51.84 21.76-99.2 53.12-138.88 92.8-38.619 38.803-69.946 84.904-91.728 136.046l-1.072 2.834c-21.449 48.88-33.932 105.854-33.932 165.744 0 1.131 0.004 2.26 0.013 3.389l-0.001-0.173c0 58.88 10.88 115.84 33.92 168.96 21.76 51.84 53.12 99.2 92.8 138.88s87.040 71.040 138.88 92.8c48.88 21.449 105.854 33.932 165.744 33.932 1.131 0 2.26-0.004 3.389-0.013l-0.173 0.001c58.88 0 115.84-10.88 168.96-33.92 51.84-21.76 99.2-53.12 138.88-92.8s71.040-87.040 92.8-138.88c23.040-53.12 33.92-110.080 33.92-168.96s-10.88-115.84-33.92-168.96c-21.76-51.84-53.12-99.2-92.8-138.88zM256 524.8c0-42.88 33.92-76.8 76.8-76.8h37.76c42.24 0 76.16 33.92 76.16 76.8v37.76c0 42.24-33.92 76.16-76.16 76.16h-37.76c-42.88 0-76.8-33.92-76.8-76.16v-37.76zM576 524.8c0-42.88 33.92-76.8 76.8-76.8h37.76c42.24 0 76.16 33.92 76.16 76.8v37.76c0 42.24-33.92 76.16-76.16 76.16h-37.76c-42.88 0-76.8-33.92-76.8-76.16v-37.76zM832 320c8.96 24.96-21.76 64-48 64h-549.76c-27.52 0-51.2-39.040-42.24-64 46.080-119.68 186.24-192 320-192s273.92 71.68 320 192z" />
<glyph unicode="&#xe99a;" glyph-name="star" data-tags="star" horiz-adv-x="896" d="M896 576l-313.6 40.96-134.4 279.040-134.4-279.040-313.6-40.96 230.4-208.64-59.52-303.36 277.12 149.12 277.12-149.12-59.52 303.36 230.4 208.64z" />
<glyph unicode="&#xe99b;" glyph-name="stop" data-tags="stop" horiz-adv-x="896" d="M640 896h-384l-256-256v-384l256-256h384l256 256v384l-256 256zM832 288l-224-224h-320l-224 224v320l224 224h320l224-224v-320zM384 704h128v-320h-128v320zM384 320h128v-128h-128v128z" />
<glyph unicode="&#xe99c;" glyph-name="sync" data-tags="sync" horiz-adv-x="768" d="M655.36 486.4l112-21.76-0.034 0.876c0.306-6.218 0.46-12.475 0.46-18.769 0-104.66-42.754-199.334-111.786-267.547-136.96-135.040-350.72-145.92-501.76-34.56l-83.84-80.64-38.4 268.8 275.2-38.4-74.88-72.96-1.050 0.648c43.815-28.81 96.258-45.572 152.616-45.572 75.816 0 144.547 30.334 194.674 79.483l0.048 0.047c49.277 48.217 79.858 115.463 79.858 189.851 0 14.296-1.129 28.328-3.106 40.502zM189.44 640l-0.039-0.039c-49.294-48.423-79.867-115.84-79.867-190.398 0-14.332 1.13-28.4 3.107-40.604l-112 22.4c-4.48 103.040 31.36 206.72 110.72 285.44 137.6 135.040 351.36 145.92 502.4 34.56l83.84 80.64 38.4-268.8-275.2 38.4 74.88 72.96 1.050-0.648c-43.815 28.81-96.258 45.572-152.616 45.572-75.816 0-144.547-30.334-194.674-79.483z" />
<glyph unicode="&#xe99d;" glyph-name="tag" data-tags="tag" horiz-adv-x="960" d="M494.72 849.28c-30.080 30.080-71.040 46.72-113.28 46.72h-157.44c-87.68 0-160-72.32-160-160v-158.080c0-42.24 17.28-83.2 46.72-113.28l387.84-387.84c24.96-24.96 65.28-24.96 90.24 0l293.76 293.76c11.563 11.54 18.716 27.495 18.716 45.12s-7.153 33.58-18.715 45.119l-0.001 0.001-387.84 388.48zM152.32 506.24c-19.84 19.2-30.080 44.8-30.080 72.32v157.44c0 56.32 46.080 101.76 101.76 101.76h158.080c26.88 0 53.12-10.24 72.32-30.080l392.96-392.32-302.72-302.72-392.32 393.6zM192.64 768h-0.64v-128h128.64v128h-128z" />
<glyph unicode="&#xe99e;" glyph-name="tasklist" data-tags="tasklist" d="M986.24 384h-0.64c37.76 0 37.76 26.24 37.76 64s0 64-37.76 64h-499.84c-37.76 0-37.76-26.24-37.76-64s0-64 37.76-64h500.48zM613.76 704h371.84c37.76 0 37.76 26.24 37.76 64s0 64-37.76 64h-371.84c-37.76 0-37.76-26.24-37.76-64s0-64 37.76-64zM0 709.76l192-192 352 352-90.24 90.24-261.76-268.8-101.76 101.76-90.24-83.2zM485.76 192c-37.76 0-37.76-26.24-37.76-64s0-64 37.76-64h499.84c37.76 0 37.76 26.24 37.76 64s0 64-37.76 64h-499.84z" />
<glyph unicode="&#xe99f;" glyph-name="telescope" data-tags="telescope" horiz-adv-x="896" d="M512 384l-128-64-128-320h64l128 320v-384h64v320l128-256h64l-192 384zM448 960v-64h-64v64h64zM320 768v-64h-64v64h64zM128 896v-64h-64v64h64zM40.32 384l-0.64 0.64 81.28 55.040 74.24-128-88.96-42.24c-14.72-7.040-32.64-1.92-40.96 12.8l-35.113 58.704c-2.549 4.706-3.996 10.096-3.996 15.824 0 11.214 5.546 21.132 14.149 27.231zM545.28 728.96h-0.64l113.28-195.84-405.12-193.92-78.72 136.96 371.2 252.8zM815.36 647.040c8.96-16.64 3.2-36.48-14.080-44.8l-85.12-40.96-117.76 204.8 76.679 53.045c5.159 3.416 11.346 5.406 17.998 5.406 11.973 0 22.441-6.447 28.204-16.211l94.080-161.28z" />
<glyph unicode="&#xe9a0;" glyph-name="terminal" data-tags="terminal" horiz-adv-x="896" d="M448 320v-64h256v64h-256zM256 256l-48 48 144 144-144 144 48 48 192-192-192-192zM896 768v-640c0-35.2-28.8-64-64-64h-768c-35.2 0-64 28.8-64 64v640c0 35.2 28.8 64 64 64h768c35.2 0 64-28.8 64-64zM832 768h-768v-640h768v640z" />
<glyph unicode="&#xe9a1;" glyph-name="text-size" data-tags="text-size" horiz-adv-x="1152" d="M871.68 378.88l-97.28 346.88h-3.84l-96-346.88h197.12zM364.8 311.68s-65.28 231.040-74.88 263.040h-5.12l-72.32-263.040h152.32zM1107.84 64h-144l-60.8 208h-260.48l-60.8-208h-144l-44.16 149.12h-209.92l-44.8-149.12h-138.88l211.2 613.76h160l138.88-405.76 184.96 560h161.28l252.16-768h-0.64z" />
<glyph unicode="&#xe9a2;" glyph-name="three-bars" data-tags="three-bars" horiz-adv-x="768" d="M730.24 384h-0.64c37.76 0 37.76 26.24 37.76 64s0 64-37.76 64h-691.84c-37.76 0-37.76-26.24-37.76-64s0-64 37.76-64h692.48zM730.24 640h-0.64c37.76 0 37.76 26.24 37.76 64s0 64-37.76 64h-691.84c-37.76 0-37.76-26.24-37.76-64s0-64 37.76-64h692.48zM37.76 256c-37.76 0-37.76-26.24-37.76-64s0-64 37.76-64h691.84c37.76 0 37.76 26.24 37.76 64s0 64-37.76 64h-691.84z" />
<glyph unicode="&#xe9a3;" glyph-name="thumbsdown" data-tags="thumbsdown" d="M1022.72 458.88l-62.080 380.8c-10.88 88.32-120.32 120.32-192.64 120.32h-403.84c-12.8 0-24.32-3.2-33.92-8.96l-92.16-55.040h-110.080c-67.84 0-128-60.16-128-128v-256c0-67.84 60.16-129.28 128-128h128c58.24 0 88.96-28.8 152.96-99.2 58.24-64 56.32-115.2 40.32-209.28-5.12-32 3.84-64 26.88-90.88 24.96-30.080 62.72-48.64 99.84-48.64 117.12 0 192 237.44 192 320.64l-1.28 62.72h130.56c74.24 0 124.8 51.2 126.72 126.080 0 7.040-1.28 13.44-1.28 13.44zM896.64 382.72h-127.36c-44.8 0-65.92-17.92-65.92-62.080l1.92-65.92c0-81.28-74.88-256-128-256-32 0-69.12 32-64 64 16 101.12 21.76 177.92-56.96 264.96-65.28 72.32-113.28 120.32-200.32 120.32v384l106.88 64h405.12c46.72 0 124.8-19.84 128-64l1.28-1.28 64-384c-1.92-40.96-24.32-64-64-64h-0.64z" />
<glyph unicode="&#xe9a4;" glyph-name="thumbsup" data-tags="thumbsup" d="M1022.72 437.12l-62.080-380.8c-10.88-88.32-120.32-120.32-192.64-120.32h-403.84c-12.8 0-24.32 3.2-33.92 8.96l-92.16 55.040h-110.080c-67.84 0-128 60.16-128 128v256c0 67.84 60.16 129.28 128 128h128c58.24 0 88.96 28.8 152.96 99.2 58.24 64 56.32 115.2 40.32 209.28-5.12 32 3.84 64 26.88 90.88 24.96 30.080 62.72 48.64 99.84 48.64 117.12 0 192-237.44 192-320.64l-1.28-62.72h130.56c74.24 0 124.8-51.2 126.72-126.080 0-7.040-1.28-13.44-1.28-13.44zM896.64 513.28h-127.36c-44.8 0-65.92 17.92-65.92 62.080l1.92 65.92c0 81.28-74.88 256-128 256-32 0-69.12-32-64-64 16-101.12 21.76-177.92-56.96-264.96-65.28-72.32-113.28-120.32-200.32-120.32v-384l106.88-64h405.12c46.72 0 124.8 19.84 128 64l1.28 1.28 64 384c-1.92 40.96-24.32 64-64 64h-0.64z" />
<glyph unicode="&#xe9a5;" glyph-name="tools" data-tags="tools" d="M286.72 494.72c16.64-16.64 81.92-85.12 81.92-85.12l35.84 37.12-56.32 58.24 108.16 115.2s-48.64 47.36-27.52 28.8c20.48 76.16 1.92 160.64-55.68 220.16-57.6 58.88-138.88 78.080-211.84 58.24l123.52-128-32.64-125.44-120.96-33.28-123.52 128c-19.84-75.52-1.28-159.36 56.32-218.24 60.16-62.72 146.56-80.64 222.72-55.68zM698.88 370.56l242.56-251.52c40.32-41.6 40.32-108.8 0-150.4-20.48-21.12-46.72-31.36-72.96-31.36s-53.12 10.24-72.96 31.36l-245.76 254.72 149.12 147.2zM1024 798.080l-462.080-477.44-56.32 58.24-276.48-285.44-32.64-65.28-140.8-92.16-22.4 23.68 88.96 145.28 63.36 33.92 275.84 285.44-56.32 58.24 462.080 477.44 156.8-161.92z" />
<glyph unicode="&#xe9a6;" glyph-name="trashcan" data-tags="trashcan" horiz-adv-x="768" d="M704 832h-128c0 35.2-28.8 64-64 64h-192c-35.2 0-64-28.8-64-64h-128c-35.2 0-64-28.8-64-64v-64c0-35.2 28.8-64 64-64v-576c0-35.2 28.8-64 64-64h448c35.2 0 64 28.8 64 64v576c35.2 0 64 28.8 64 64v64c0 35.2-28.8 64-64 64zM640 64h-448v576h64v-512h64v512h64v-512h64v512h64v-512h64v512h64v-576zM704 704h-576v64h576v-64z" />
<glyph unicode="&#xe9a7;" glyph-name="unfold" data-tags="unfold" horiz-adv-x="896" d="M736 480l160 160c0 35.2-28.8 64-64 64h-256v-64h224l-128-128h-448l-128 128h224v64h-256c-35.2 0-64-28.8-64-64l160-160-160-160c0-35.2 28.8-64 64-64h256v64h-224l128 128h448l128-128h-224v-64h256c35.2 0 64 28.8 64 64l-160 160zM384 576v192h-128l192 192 192-192h-128v-192h-128zM512 384v-192h128l-192-192-192 192h128v192h128z" />
<glyph unicode="&#xe9a8;" glyph-name="unmute" data-tags="unmute" d="M768 446.72v-0.025c0 0.164 0 0.327 0 0.491 0 70.559-28.617 134.434-74.88 180.654l-42.88-42.88c35.2-35.2 56.96-83.84 56.96-138.24s-21.76-102.4-56.96-138.24l42.88-42.88c46.080 47.36 74.88 111.36 74.88 181.12zM494.080 814.080c30.080 30.080 81.92 8.96 81.92-33.92v-664.32c0-42.88-51.84-64-81.92-33.92l-238.080 238.080h-128c-35.2 0-64 28.8-64 64v128c0 35.2 28.8 64 64 64h128l238.080 238.080zM874.24 808.96v1.28c92.8-92.16 149.76-220.16 149.76-362.24v0.060c0.001-0.392 0.001-0.785 0.001-1.178 0-141.060-57.238-268.751-149.761-361.123l-42.88 42.88c81.92 81.92 131.84 194.56 131.84 318.72v-0.077c0.002 0.498 0.002 0.996 0.002 1.495 0 123.989-50.398 236.207-131.842 317.302l42.88 42.88zM784 718.72c69.12-69.76 112-166.4 112-272v0.024c0-0.151 0-0.303 0-0.454 0-105.562-42.802-201.128-112-270.289l-44.16 42.88c58.88 57.6 94.72 138.88 94.72 227.84v-0.029c0 0.185 0 0.37 0 0.554 0 89.278-36.199 170.101-94.72 228.594l44.16 42.88z" />
<glyph unicode="&#xe9a9;" glyph-name="unverified" data-tags="unverified" d="M1002.88 507.776l-69.12 85.76c-10.678 13.603-17.81 30.459-19.741 48.864l-0.035 0.416-12.16 108.672c-5.222 44.731-40.333 79.864-84.602 85.076l-0.454 0.044-108.736 12.16c-19.2 1.92-35.84 10.176-49.92 21.056l-85.632 69.056c-16.311 13.124-37.276 21.065-60.096 21.065s-43.785-7.941-60.283-21.21l0.187 0.145-85.76-69.12c-13.598-10.701-30.454-17.854-48.861-19.804l-0.419-0.036-108.672-12.16c-44.8-5.12-80-40.32-85.12-85.056l-12.16-108.736c-1.92-19.2-10.176-35.84-21.056-49.92l-69.12-85.568c-13.124-16.311-21.065-37.276-21.065-60.096s7.941-43.785 21.21-60.283l-0.145 0.187 69.12-85.76c10.88-14.080 17.92-30.72 19.84-49.28l12.16-108.672c5.12-44.8 40.32-80 85.056-85.12l108.736-12.16c19.2-1.92 35.84-10.176 49.92-21.056l85.696-69.12c35.2-28.096 85.056-28.096 120.192 0l85.76 69.12c14.080 10.88 30.72 17.92 49.28 19.84l108.672 12.16c44.8 5.12 80 40.32 85.12 85.056l12.16 108.736c1.92 19.2 10.176 35.84 21.056 49.92l69.12 85.696c13.124 16.311 21.065 37.276 21.065 60.096s-7.941 43.785-21.21 60.283l0.145-0.187zM576 224c0-17.92-14.080-32-32-32h-64c-17.28 0-32 14.080-32 32v64c0 17.92 14.72 32 32 32h64c17.92 0 32-14.080 32-32v-64zM675.84 536.96c-3.84-10.88-10.88-21.12-19.2-30.080-8.32-10.24-8.96-12.16-21.12-24.32-10.24-10.88-19.84-19.2-33.28-28.8-7.040-5.76-12.8-12.16-17.92-17.28s-8.96-10.88-12.16-17.28c-3.2-6.4-5.12-12.16-7.040-19.2s-1.92-8.32-1.92-16h-106.88c0 14.080 0 19.84 1.92 30.72 1.92 12.16 5.12 23.040 8.96 33.28 3.84 8.96 8.96 17.92 16 26.88 7.040 8.32 14.72 16 26.24 24.32 17.28 12.16 23.040 19.2 30.72 33.28s12.8 24.32 12.8 37.76c0 17.28-3.84 28.8-12.8 37.12-8.32 8.32-19.84 12.16-37.12 12.16-5.76 0-12.16-1.28-19.2-3.2s-10.88-5.76-16-10.24c-5.12-4.48-8.96-7.040-12.8-12.8-3.613-4.459-5.801-10.202-5.801-16.455 0-0.515 0.015-1.027 0.044-1.535l-0.003 0.070h-128c0 24.32 8.32 35.84 17.28 53.12 10.24 17.28 23.040 32 39.040 42.88s35.2 19.2 56.32 24.32c21.12 5.12 44.8 8.32 69.76 8.32 28.16 0 53.12-3.2 74.88-8.32 21.76-5.76 40.32-14.080 56.32-24.96 14.72-10.88 26.24-24.32 35.2-40.32 8.32-16 12.16-35.2 12.16-56.32 0-14.080 0-26.88-5.12-37.76l-1.28 0.64z" />
<glyph unicode="&#xe9aa;" glyph-name="verified" data-tags="verified" d="M1002.88 507.776l-69.12 85.76c-10.678 13.603-17.81 30.459-19.741 48.864l-0.035 0.416-12.16 108.672c-5.222 44.731-40.333 79.864-84.602 85.076l-0.454 0.044-108.736 12.16c-19.2 1.92-35.84 10.176-49.92 21.056l-85.632 69.056c-16.311 13.124-37.276 21.065-60.096 21.065s-43.785-7.941-60.283-21.21l0.187 0.145-85.76-69.12c-13.598-10.701-30.454-17.854-48.861-19.804l-0.419-0.036-108.672-12.16c-44.8-5.12-80-40.32-85.12-85.056l-12.16-108.736c-1.92-19.2-10.176-35.84-21.056-49.92l-69.12-85.568c-13.124-16.311-21.065-37.276-21.065-60.096s7.941-43.785 21.21-60.283l-0.145 0.187 69.12-85.76c10.88-14.080 17.92-30.72 19.84-49.28l12.16-108.672c5.12-44.8 40.32-80 85.056-85.12l108.736-12.16c19.2-1.92 35.84-10.176 49.92-21.056l85.696-69.12c35.2-28.096 85.056-28.096 120.192 0l85.76 69.12c14.080 10.88 30.72 17.92 49.28 19.84l108.672 12.16c44.8 5.12 80 40.32 85.12 85.056l12.16 108.736c1.92 19.2 10.176 35.84 21.056 49.92l69.12 85.696c13.124 16.311 21.065 37.276 21.065 60.096s-7.941 43.785-21.21 60.283l0.145-0.187zM416 191.36l-224 224 96 96 128-128 320 320 96-99.2-416-412.8z" />
<glyph unicode="&#xe9ab;" glyph-name="versions" data-tags="versions" horiz-adv-x="896" d="M832 768h-384c-35.2 0-64-28.8-64-64v-512c0-35.2 28.8-64 64-64h384c35.2 0 64 28.8 64 64v512c0 35.2-28.8 64-64 64zM768 256h-256v384h256v-384zM256 704c-35.2 0-64-28.8-64-64v-384c0-35.2 28.8-64 64-64h64v64h-64v384h64v64h-64zM64 640c-35.2 0-64-28.8-64-64v-256c0-35.2 28.8-64 64-64h64v64h-64v256h64v64h-64z" />
<glyph unicode="&#xe9ac;" glyph-name="watch" data-tags="watch" horiz-adv-x="768" d="M384 448v192h-64v-256h192v64h-128zM768 448c0-142.080-76.8-266.24-192-332.16v-115.84c0-35.2-28.8-64-64-64h-256c-35.2 0-64 28.8-64 64v115.84c-115.2 65.92-192 190.080-192 332.16s76.8 266.24 192 332.16v115.84c0 35.2 28.8 64 64 64h256c35.2 0 64-28.8 64-64v-115.84c115.2-65.92 192-190.080 192-332.16zM704 448c0 177.28-142.72 320-320 320s-320-142.72-320-320 142.72-320 320-320 320 142.72 320 320z" />
<glyph unicode="&#xe9ad;" glyph-name="x, times" data-tags="x" horiz-adv-x="768" d="M478.72 448l240-240-94.72-94.72-240 240-240-240-94.72 94.72 240 240-240 240 94.72 94.72 240-240 240 240 94.72-94.72-240-240z" />
<glyph unicode="&#xe9ae;" glyph-name="zap" data-tags="zap" horiz-adv-x="640" d="M640 512h-256l192 448-576-576h256l-192-448 576 576z" />
<glyph unicode="&#xe9af;" glyph-name="squirrel" data-tags="squirrel" d="M768 896c-141.44 0-256-83.84-256-186.88 0-124.16 32-193.92 0-389.12 0 288-177.28 405.76-256 405.76 3.2 32-30.72 42.24-30.72 42.24s-14.080-7.040-19.2-21.76c-17.28 19.84-35.84 17.28-35.84 17.28l-8.32-37.12s-117.12-40.96-118.4-206.080c12.8-21.12 97.92-38.4 158.080-27.52 56.96-3.2 42.88-50.56 30.080-63.36-53.76-53.76-103.68 18.56-167.68 18.56s-64-64 0-64 64-64 192-64c-197.76-76.8 0-256 0-256h-64c-64 0-64-64-64-64h384c192 0 320 64 320 222.080 0 54.4-27.52 114.56-64 161.92-71.040 93.44 14.72 171.52 64 128s192-64 192 128c0 141.44-114.56 256-256 256zM160 576c-17.92 0-32 14.080-32 32s14.080 32 32 32 32-14.080 32-32-14.080-32-32-32z" />
<glyph unicode="&#xe9b0;" glyph-name="octoface" data-tags="octoface" d="M940.8 618.24c8.32 20.48 35.2 101.76-8.32 211.84 0 0-67.2 21.12-220.16-83.2-64 17.92-132.48 20.48-200.32 20.48s-136.32-2.56-200.32-20.48c-152.96 104.96-220.16 83.2-220.16 83.2-43.52-110.080-16.64-191.36-8.32-211.84-51.84-55.68-83.2-127.36-83.2-214.4 0-329.6 213.12-403.84 510.72-403.84s513.28 74.24 513.28 403.84c0 87.040-31.36 158.72-83.2 214.4zM512 62.72c-211.2 0-382.72 9.6-382.72 214.4 0 48.64 24.32 94.72 65.28 132.48 68.48 62.72 185.6 29.44 317.44 29.44 132.48 0 248.32 33.28 317.44-29.44 41.6-37.76 65.28-83.2 65.28-132.48 0-204.16-171.52-214.4-382.72-214.4zM351.36 383.36c42.24 0 76.8-50.56 76.8-113.92s-34.56-114.56-76.8-114.56c-42.24 0-76.8 51.84-76.8 114.56s34.56 113.92 76.8 113.92zM672.64 383.36c42.88 0 76.8-50.56 76.8-113.92s-34.56-114.56-76.8-114.56c-42.24 0-76.8 51.2-76.8 114.56s34.56 113.92 76.8 113.92z" />
<glyph unicode="&#xe9b1;" glyph-name="mark-github" data-tags="mark-github" d="M512 960c-282.88 0-512-229.12-512-512 0-226.56 146.56-417.92 350.080-485.76 25.6-4.48 35.2 10.88 35.2 24.32 0 12.16-0.64 52.48-0.64 95.36-128.64-23.68-161.92 31.36-172.16 60.16-5.76 14.72-30.72 60.16-52.48 72.32-17.92 9.6-43.52 33.28-0.64 33.92 40.32 0.64 69.12-37.12 78.72-52.48 46.080-77.44 119.68-55.68 149.12-42.24 4.48 33.28 17.92 55.68 32.64 68.48-113.92 12.8-232.96 56.96-232.96 252.8 0 55.68 19.84 101.76 52.48 137.6-5.12 12.8-23.040 65.28 5.12 135.68 0 0 42.88 13.44 140.8-52.48 40.96 11.52 84.48 17.28 128 17.28s87.040-5.76 128-17.28c97.92 66.56 140.8 52.48 140.8 52.48 28.16-70.4 10.24-122.88 5.12-135.68 32.64-35.84 52.48-81.28 52.48-137.6 0-196.48-119.68-240-233.6-252.8 18.56-16 34.56-46.72 34.56-94.72 0-68.48-0.64-123.52-0.64-140.8 0-13.44 9.6-29.44 35.2-24.32 204.471 70.528 348.741 261.288 348.8 485.753v0.007c0 282.88-229.12 512-512 512z" />
<glyph unicode="&#xe9b2;" glyph-name="logo-gist" data-tags="logo-gist" horiz-adv-x="1600" d="M300.8 401.28v64h225.28v-364.16c-49.92-23.68-124.8-40.96-229.76-40.96-225.28 0-296.32 172.16-296.32 385.92s72.32 385.92 296.32 385.92c103.68 0 168.96-21.12 209.92-42.24v-67.2c-78.080 32-128 46.72-209.92 46.72-164.48 0-222.72-141.44-222.72-323.84s58.24-323.2 222.080-323.2c56.96 0 126.72 4.48 161.92 21.76v257.28h-156.8zM709.76 163.2v-1.28c0-34.56 12.16-44.8 42.88-44.8v-56.96c-72.96 0-110.080 30.080-110.080 110.080v401.92h67.2v-408.96zM725.76 721.28c0-28.16-21.76-49.92-49.92-49.92s-49.28 21.76-49.28 49.92c0 28.16 20.48 49.92 49.28 49.92s49.92-21.76 49.92-49.92zM1003.52 357.12h1.92c142.080-12.8 176-60.8 176-142.72 0-77.44-48.64-154.24-200.96-154.24-48 0-117.12 12.16-149.12 24.96v60.16c30.080-10.88 78.080-23.040 149.12-23.040 103.68 0 131.84 44.16 131.84 90.88 0 45.44-14.080 77.44-113.28 85.76-144.64 12.8-174.72 64-174.72 133.12 0 71.040 46.080 147.84 186.88 147.84 46.72 0 99.84-5.76 144-24.96v-60.16c-39.040 12.8-78.080 23.040-145.28 23.040-99.2 0-120.32-36.48-120.32-85.76 0-44.16 17.92-66.56 113.92-74.88zM1552.64 515.2v0.64h-154.88v-311.68c0-60.8 33.92-85.76 96-85.76 12.8 0 26.88 0 39.040 1.92v-56.96c-10.88-1.92-32-3.2-44.16-3.2-83.84 0-160 38.4-160 136.32v320h-99.84v30.72l99.84 28.16v135.040l69.12 19.84v-160h154.88v-55.040z" />
<glyph unicode="&#xe9b3;" glyph-name="logo-github" data-tags="logo-github" horiz-adv-x="2880" d="M1185.92 190.016l0.64-0.64h-0.384c-0.576 0.064-0.96 0.704-1.536 0.704h1.28zM1186.176 189.376c-5.952-0.064-20.928-3.2-36.736-3.2-49.92 0-67.2 23.040-67.2 53.12v200.384h101.76c5.76 0 10.24 5.12 10.24 12.16v108.8c0 5.76-5.12 10.88-10.24 10.88h-101.76v135.040c0 5.12-3.2 8.32-8.96 8.32h-138.24c-5.76 0-8.96-3.2-8.96-8.32v-138.88s-69.76-17.28-74.24-17.92c-5.12-1.28-8.32-5.76-8.32-10.88v-87.040c0-7.040 5.12-12.16 10.88-12.16h71.040v-209.92c0-156.16 108.8-172.16 183.040-172.16 33.92 0 74.88 10.88 81.28 14.080 3.84 1.28 5.76 5.76 5.76 10.24v96c0.004 0.109 0.006 0.237 0.006 0.366 0 5.557-4.002 10.18-9.281 11.143l-0.069 0.011zM2702.72 330.24c0 115.84-46.72 131.2-96 126.080-38.4-2.56-69.12-21.76-69.12-21.76v-225.28s31.36-21.76 78.080-23.040c65.92-1.92 87.040 21.76 87.040 144zM2858.24 340.48c0-219.52-71.040-282.24-195.2-282.24-104.96 0-161.28 53.12-161.28 53.12s-2.56-29.44-5.76-33.28c-1.92-3.84-5.12-5.12-8.96-5.12h-94.72c-6.4 0-12.16 5.12-12.16 10.88l1.28 711.040c0 5.76 5.12 10.88 10.88 10.88h136.32c5.76 0 10.88-5.12 10.88-10.88v-241.28s52.48 33.92 129.28 33.92l-0.64 1.28c76.8 0 190.080-28.8 190.080-248.32zM2300.16 571.52h-134.4c-7.040 0-10.88-5.12-10.88-12.16v-348.16s-35.2-24.96-83.2-24.96-62.080 21.76-62.080 69.76v304c0 5.76-5.12 10.88-10.88 10.88h-136.96c-5.76 0-10.88-5.12-10.88-10.88v-327.040c0-140.8 78.72-176 186.88-176 88.96 0 161.28 49.28 161.28 49.28s3.2-24.96 5.12-28.8c1.28-3.2 5.76-5.76 10.24-5.76h85.76c7.040 0 10.88 5.12 10.88 10.88l1.28 478.080c0 5.76-5.12 10.88-12.16 10.88zM783.36 572.16c5.76 0 10.88-5.12 10.88-10.88v-471.68c0-11.52-3.2-17.28-16-17.28h-122.88c-10.88 0-19.2 4.48-19.2 17.28v469.76c0 7.040 5.12 12.8 10.88 12.8h136.32zM716.16 788.48c48 0 87.040-39.040 87.040-88.32s-39.040-88.32-87.040-88.32c-49.28 0-88.32 39.040-88.32 88.32s39.040 88.32 88.32 88.32zM1771.52 804.48c5.76 0 10.88-5.12 10.88-10.88v-711.040c0-5.76-5.12-10.88-10.88-10.88h-136.32c-5.76 0-10.88 5.12-10.88 10.88l1.28 304h-211.84v-304c0-5.76-5.12-10.88-10.88-10.88h-136.32c-5.12 0-10.88 5.12-10.88 10.88v711.040c0 5.76 5.12 10.88 10.88 10.88h136.32c5.76 0 10.88-5.12 10.88-10.88v-261.76h211.84v261.76c0 5.76 5.12 10.88 10.88 10.88h135.040zM563.84 489.6c0 5.76-5.12 10.88-12.16 10.88h-239.36c-7.040 0-12.16-5.12-12.16-10.88v-117.76c0-5.76 5.12-10.88 12.16-10.88h94.080v-147.2c0 0-21.12-7.040-80-7.040-69.12 0-165.12 24.96-165.12 236.8s101.12 238.72 195.2 238.72c81.28 0 115.84-14.080 138.88-21.12 7.040-1.92 12.8 5.12 12.8 10.88l26.88 113.92c0 3.2-1.28 5.76-3.84 8.96-8.96 5.76-65.28 37.12-204.8 37.12-161.28 0.64-326.4-67.2-326.4-396.16s188.8-378.88 348.16-378.88c131.84 0 211.84 56.96 211.84 56.96 3.2 1.28 3.84 5.76 3.84 8.32v367.36z" />
<glyph unicode="&#xe9b4;" glyph-name="pacman" data-tags="pacman, game, arcade" d="M964.73 781.196c-93.902 109.45-233.21 178.804-388.73 178.804-282.77 0-512-229.23-512-512s229.23-512 512-512c155.52 0 294.828 69.356 388.728 178.804l-324.728 333.196 324.73 333.196zM704 839.398c39.432 0 71.398-31.964 71.398-71.398 0-39.432-31.966-71.398-71.398-71.398s-71.398 31.966-71.398 71.398c0 39.432 31.966 71.398 71.398 71.398z" />
<glyph unicode="&#xe9b5;" glyph-name="fold-down" data-tags="fold-down" horiz-adv-x="896" d="M256 256h128v384h128v-384h128l-192-192-192 192zM0 256l160 160-160 160c0 35.2 28.8 64 64 64h256v-64h-224l128-128h96v-64h-96l-128-128h64l64-64h-160c-35.2 0-64 28.8-64 64zM672 384l128-128h-64l-64-64h160c35.2 0 64 28.8 64 64l-160 160 160 160c0 35.2-28.8 64-64 64h-256v-64h224l-128-128h-96v-64h96z" />
<glyph unicode="&#xe9b6;" glyph-name="fold-up" data-tags="fold-up" horiz-adv-x="896" d="M640 576h-128v-384h-128v384h-128l192 192 192-192zM896 576l-160-160 160-160c0-35.2-28.8-64-64-64h-256v64h224l-128 128h-96v64h96l128 128h-64l-64 64h160c35.2 0 64-28.8 64-64zM224 448l-128 128h64l64 64h-160c-35.2 0-64-28.8-64-64l160-160-160-160c0-35.2 28.8-64 64-64h256v64h-224l128 128h96v64h-96z" />
<glyph unicode="&#xe9b7;" glyph-name="github-action" data-tags="github-action" d="M576 832v0c0 35.346-28.654 64-64 64s-64-28.654-64-64h-384c-35.2 0-64-28.8-64-64v-640c0-35.2 28.8-64 64-64h384c0-35.346 28.654-64 64-64s64 28.654 64 64h384c35.2 0 64 28.8 64 64v640c0 35.2-28.8 64-64 64h-384zM960 768v-640h-896v640h896zM800 512v0c-53.019 0-96 42.981-96 96s42.981 96 96 96v0c53.019 0 96-42.981 96-96s-42.981-96-96-96z" />
<glyph unicode="&#xe9b8;" glyph-name="play" data-tags="play" horiz-adv-x="896" d="M896 448c0-247.424-200.576-448-448-448s-448 200.576-448 448v0c0 247.424 200.576 448 448 448s448-200.576 448-448v0zM369.728 225.152l294.336 196.224c8.64 5.821 14.247 15.568 14.247 26.624s-5.607 20.803-14.133 26.552l-0.114 0.072-294.336 196.224c-4.983 3.358-11.122 5.359-17.728 5.359-17.667 0-31.991-14.317-32-31.983v-392.449c0.009-17.666 14.333-31.983 32-31.983 6.606 0 12.745 2.002 17.842 5.432l-0.114-0.073z" />
<glyph unicode="&#xe9b9;" glyph-name="request-changes" data-tags="request-changes" d="M0 896c0 35.346 28.654 64 64 64v0h896c35.346 0 64-28.654 64-64v0-640c0-35.346-28.654-64-64-64v0h-480l-224-224v224h-192c-35.346 0-64 28.654-64 64v0 640zM64 896v-640h256v-128l128 128h512v640h-896zM544 704v128h-64v-128h-128v-64h128v-128h64v128h128v64h-128zM672 384v64h-320v-64h320z" />
<glyph unicode="&#xe9ba;" glyph-name="x1" data-tags="x" horiz-adv-x="768" d="M478.72 448l240-240-94.72-94.72-240 240-240-240-94.72 94.72 240 240-240 240 94.72 94.72 240-240 240 240 94.72-94.72-240-240z" />
<glyph unicode="&#xea7e;" glyph-name="new-tab" data-tags="new-tab, out, external, outside, popout, link, blank" d="M192 896v-768h768v768h-768zM896 192h-640v640h640v-640zM128 64v672l-64 64v-800h800l-64 64h-672zM352 704l160-160-192-192 96-96 192 192 160-160v416z" />
<glyph unicode="&#xea81;" glyph-name="terminal-alt" data-tags="terminal, console, cmd, command-line" d="M0 896v-896h1024v896h-1024zM960 64h-896v768h896v-768zM896 768h-768v-640h768v640zM448 448h-64v-64h-64v-64h-64v64h64v64h64v64h-64v64h-64v64h64v-64h64v-64h64v-64zM704 320h-192v64h192v-64z" />
<glyph unicode="&#xea95;" glyph-name="mark-telegram" data-tags="telegram, brand, social" d="M512 960c-282.8 0-512-229.2-512-512s229.2-512 512-512 512 229.2 512 512-229.2 512-512 512zM763.6 609l-84-395.8c-5.8-28.2-22.8-34.8-46.4-21.8l-128 94.6-61.4-59.8c-7.2-7-12.8-12.8-25.6-12.8-16.6 0-13.8 6.2-19.4 22l-43.6 143.2-126.6 39.4c-27.4 8.4-27.6 27.2 6.2 40.6l493.2 190.4c22.4 10.2 44.2-5.4 35.6-40z" />
</font>
</defs>
</svg>
